<svg width="938.000000" height="347.000000" viewBox="0 0 938 347" fill="none" xmlns="http://www.w3.org/2000/svg" xmlns:xlink="http://www.w3.org/1999/xlink">
	<desc>
			Created with Pixso.
	</desc>
	<defs>
		<filter id="filter_85_48140_dd" x="0.000000" y="0.000000" width="938.000000" height="347.000000" filterUnits="userSpaceOnUse" color-interpolation-filters="sRGB">
			<feFlood flood-opacity="0" result="BackgroundImageFix"/>
			<feColorMatrix in="SourceAlpha" type="matrix" values="0 0 0 0 0 0 0 0 0 0 0 0 0 0 0 0 0 0 127 0" result="hardAlpha"/>
			<feOffset dx="0" dy="4"/>
			<feGaussianBlur stdDeviation="3.33333"/>
			<feComposite in2="hardAlpha" operator="out" k2="-1" k3="1"/>
			<feColorMatrix type="matrix" values="0 0 0 0 0 0 0 0 0 0 0 0 0 0 0 0 0 0 0.25 0"/>
			<feBlend mode="normal" in2="BackgroundImageFix" result="effect_dropShadow_1"/>
			<feBlend mode="normal" in="SourceGraphic" in2="effect_dropShadow_1" result="shape"/>
		</filter>
		<clipPath id="clip85_48140">
			<rect id="info" rx="25.000000" width="918.000000" height="327.000000" transform="translate(10.000000 6.000000)" fill="white" fill-opacity="0"/>
		</clipPath>
	</defs>
	<g filter="url(#filter_85_48140_dd)">
		<rect id="info" rx="25.000000" width="918.000000" height="327.000000" transform="translate(10.000000 6.000000)" fill="#FFFFFF" fill-opacity="1.000000"/>
		<g clip-path="url(#clip85_48140)">
			<path id="title" d="M175.86 89.42Q172.6 94.28 172.6 102.56L172.63 104.43Q172.91 111.53 176.18 115.57Q177.59 117.32 179.41 118.32Q181.81 119.62 184.91 119.62Q187.38 119.62 189.29 118.81L189.29 132L196.85 132L196.85 118.68Q199 119.62 201.6 119.62Q204.72 119.62 207.13 118.31Q209.13 117.21 210.63 115.21Q213.94 110.81 213.94 103.21Q213.94 94.21 210.65 89.39Q208.98 86.94 206.66 85.73Q204.4 84.56 201.54 84.56Q198.85 84.56 196.85 85.56L196.85 71L189.29 71L189.29 85.43Q187.35 84.56 184.97 84.56Q182.06 84.56 179.79 85.76Q177.5 86.98 175.86 89.42ZM128.21 73.5L120.3 73.5L100.34 105.93L100.34 73.5L92.43 73.5L92.43 119L100.34 119L120.3 86.59L120.3 119L128.21 119L128.21 73.5ZM221.1 92.82Q219.14 96.81 219.14 101.78L219.14 102.15Q219.14 109.16 222.48 113.69Q222.93 114.3 223.43 114.85Q224.88 116.46 226.66 117.53Q230.15 119.62 234.89 119.62Q239.03 119.62 242.31 117.93Q242.74 117.71 243.15 117.46Q244.41 116.7 245.47 115.72Q247.41 113.92 248.65 111.37Q250.57 107.43 250.57 102.43L250.54 100.65Q250.26 94.62 247.28 90.56Q246.67 89.72 245.93 88.96Q244.56 87.54 242.91 86.58Q239.46 84.56 234.82 84.56Q230.84 84.56 227.65 86.14Q227.13 86.4 226.64 86.7Q225.6 87.32 224.69 88.1Q222.5 90 221.1 92.82ZM283.14 114.95Q286.7 110.28 286.7 102.43L286.7 101.96Q286.7 93.78 283.19 89.17Q281.72 87.24 279.79 86.12Q277.09 84.56 273.49 84.56Q269.92 84.56 267.28 86.12Q265.66 87.08 264.39 88.62L264.08 85.18L257.08 85.18L257.08 132L264.67 132L264.67 115.96Q265.76 117.15 267.08 117.96Q269.83 119.62 273.58 119.62Q276.74 119.62 279.22 118.32Q281.46 117.16 283.14 114.95ZM360.75 115.84Q361.12 118.03 361.62 119L369.37 119L369.37 118.46Q368.09 115.75 368.09 111.18L368.09 95.93Q368.02 92.03 366.16 89.39Q365.45 88.37 364.47 87.54Q364.37 87.46 364.27 87.38Q360.77 84.56 355 84.56Q351.09 84.56 347.92 85.93Q344.84 87.27 343.02 89.58Q342.96 89.66 342.9 89.73Q341.58 91.47 341.21 93.39Q341.06 94.14 341.06 94.93L348.65 94.93Q348.65 94.06 348.97 93.33Q349.37 92.37 350.31 91.64Q350.39 91.57 350.48 91.51Q352.1 90.34 354.56 90.34Q357.41 90.34 358.88 91.76Q358.96 91.84 359.03 91.92Q359.26 92.16 359.45 92.43Q360.5 93.9 360.5 96.12L360.5 98.34L355.84 98.34Q348.37 98.34 344.36 101.23Q342.77 102.37 341.82 103.9Q340.34 106.25 340.34 109.53Q340.34 111.58 341.09 113.32Q341.89 115.2 343.56 116.71Q344.21 117.3 344.93 117.77Q347.81 119.62 351.87 119.62Q354.52 119.62 356.75 118.66Q358.95 117.72 360.75 115.84ZM158.09 119L165.69 119L165.69 85.18L158.09 85.18L158.09 99.28L144.94 99.28L144.94 85.18L137.34 85.18L137.34 119L144.94 119L144.94 105.34L158.09 105.34L158.09 119ZM323.3 85.18L313.3 109.65L303.37 85.18L293.8 85.18L293.8 119L301.4 119L301.4 96.5L310.74 119L315.9 119L325.21 96.62L325.21 119L332.8 119L332.8 85.18L323.3 85.18ZM384.04 85.18L376.44 85.18L376.44 119L401.88 119L401.88 129.03L408.79 129.03L409.41 112.93L404.82 112.93L404.82 85.18L397.22 85.18L397.22 112.93L384.04 112.93L384.04 85.18ZM443.51 85.18L435.95 85.18L422.7 107.75L422.7 85.18L415.14 85.18L415.14 119L422.7 119L435.95 96.43L435.95 119L443.51 119L443.51 85.18ZM478.77 119L478.77 85.18L463.99 85.18Q457.8 85.25 454.16 88.26Q452.33 89.78 451.42 91.72Q450.52 93.65 450.52 96Q450.52 98.16 451.3 99.98Q451.66 100.82 452.19 101.59Q452.34 101.81 452.51 102.03Q454.15 104.15 456.99 105.34L449.02 119L456.89 119L464.11 106.59L471.2 106.59L471.2 119L478.77 119ZM532 85.18L524.44 85.18L511.19 107.75L511.19 85.18L503.62 85.18L503.62 119L511.19 119L524.44 96.43L524.44 119L532 119L532 85.18ZM181.85 110.92Q180.16 108.28 180.16 103.21Q180.16 96.68 181.91 93.67Q182.91 91.95 184.39 91.21Q185.51 90.65 186.91 90.65Q188.22 90.65 189.29 90.96L189.29 113.25Q188.25 113.56 186.85 113.56Q184.99 113.56 183.65 112.73Q182.59 112.08 181.85 110.92ZM204.54 93.76Q206.35 96.87 206.35 102.56Q206.35 110.47 202.79 112.69Q201.4 113.56 199.47 113.56Q197.88 113.56 196.85 113.25L196.85 91.06Q198 90.65 199.41 90.65Q200.79 90.65 201.91 91.19Q203.48 91.95 204.54 93.76ZM228.89 110.6Q226.73 107.65 226.73 102.43Q226.73 96.56 228.92 93.6Q229.98 92.17 231.4 91.43Q232.91 90.65 234.82 90.65Q236.79 90.65 238.33 91.46Q239.75 92.21 240.81 93.65Q243.01 96.65 243.01 101.78Q243.01 107.56 240.87 110.56Q239.91 111.91 238.6 112.65Q237 113.56 234.89 113.56Q232.73 113.56 231.11 112.63Q229.83 111.9 228.89 110.6ZM277.13 93.75Q279.14 96.71 279.14 101.78Q279.14 107.71 277.1 110.64Q276.11 112.04 274.76 112.77Q273.3 113.56 271.42 113.56Q268.85 113.56 267.06 112.37Q265.6 111.39 264.67 109.62L264.67 94.62Q265.56 92.94 266.94 92Q268.73 90.78 271.36 90.78Q273.42 90.78 274.96 91.67Q276.22 92.41 277.13 93.75ZM458.57 98.25Q458.11 97.33 458.11 96.18Q458.11 95.13 458.51 94.25Q458.92 93.34 459.77 92.62Q459.83 92.57 459.89 92.52Q461.52 91.21 464.2 91.21L471.2 91.21L471.2 100.96L463.74 100.96Q461.61 100.96 460.15 99.98Q459.91 99.82 459.69 99.64Q458.97 99.03 458.57 98.25ZM355.34 113.28Q354.34 113.53 353.28 113.53Q351.07 113.53 349.67 112.46Q349.53 112.35 349.39 112.23Q348.91 111.8 348.59 111.28Q347.94 110.21 347.94 108.75Q347.94 107.28 348.57 106.17Q349.1 105.26 350.06 104.59Q352.19 103.12 356.4 103.12L360.5 103.12L360.5 109.5Q360.24 109.98 359.91 110.4Q358.98 111.62 357.51 112.43Q356.47 113.01 355.34 113.28ZM129.59 158.82Q127.62 162.81 127.62 167.78L127.62 168.15Q127.62 175.16 130.97 179.69Q131.42 180.3 131.92 180.85Q133.37 182.46 135.15 183.53Q138.63 185.62 143.37 185.62Q147.52 185.62 150.8 183.93Q151.23 183.71 151.64 183.46Q152.9 182.7 153.96 181.72Q155.89 179.92 157.14 177.37Q159.06 173.43 159.06 168.43L159.03 166.65Q158.75 160.62 155.77 156.56Q155.15 155.72 154.42 154.96Q153.04 153.54 151.39 152.58Q147.94 150.56 143.31 150.56Q139.33 150.56 136.14 152.14Q135.62 152.4 135.12 152.7Q134.09 153.32 133.18 154.1Q130.99 156 129.59 158.82ZM183.19 178.63Q181.6 179.56 179.47 179.56Q177.09 179.56 175.42 178.47Q174.46 177.84 173.74 176.85Q171.75 174.15 171.75 168.65L171.75 167.43Q171.79 162 173.79 159.32Q174.54 158.32 175.53 157.69Q177.18 156.65 179.47 156.65Q181.32 156.65 182.75 157.42Q183.54 157.86 184.21 158.53Q184.8 159.12 185.21 159.82Q186.11 161.32 186.19 163.31L193.35 163.31Q193.22 159.5 191.49 156.66Q190.63 155.25 189.36 154.07Q188.52 153.29 187.56 152.68Q184.22 150.56 179.54 150.56Q174.55 150.56 171.03 152.83Q169.52 153.81 168.29 155.2Q167.86 155.68 167.48 156.19Q164.16 160.64 164.16 167.56L164.16 168.34Q164.16 176.11 167.99 180.65Q168.15 180.84 168.32 181.03Q169.56 182.4 171.07 183.36Q174.6 185.62 179.57 185.62Q181.96 185.62 184.14 184.94Q185.29 184.58 186.38 184.03Q188.81 182.8 190.46 180.9Q190.95 180.33 191.38 179.7Q192.57 177.94 193.04 176.01Q193.3 174.93 193.35 173.81L186.19 173.81Q186.13 174.93 185.71 175.88Q185.21 177.01 184.19 177.9Q183.72 178.32 183.19 178.63ZM249.77 181.84Q250.14 184.03 250.64 185L258.39 185L258.39 184.46Q257.11 181.75 257.11 177.18L257.11 161.93Q257.04 158.03 255.18 155.39Q254.47 154.37 253.49 153.54Q253.39 153.46 253.29 153.38Q249.79 150.56 244.02 150.56Q240.11 150.56 236.94 151.93Q233.86 153.27 232.04 155.58Q231.98 155.66 231.92 155.73Q230.6 157.47 230.23 159.39Q230.08 160.14 230.08 160.93L237.67 160.93Q237.67 160.06 237.99 159.33Q238.39 158.37 239.33 157.64Q239.41 157.57 239.5 157.51Q241.12 156.34 243.58 156.34Q246.43 156.34 247.9 157.76Q247.98 157.84 248.05 157.92Q248.28 158.16 248.47 158.43Q249.52 159.9 249.52 162.12L249.52 164.34L244.86 164.34Q237.39 164.34 233.38 167.23Q231.79 168.37 230.83 169.9Q229.36 172.25 229.36 175.53Q229.36 177.58 230.1 179.32Q230.91 181.2 232.58 182.71Q233.23 183.3 233.95 183.77Q236.83 185.62 240.89 185.62Q243.54 185.62 245.77 184.66Q247.97 183.72 249.77 181.84ZM302.53 158.82Q300.56 162.81 300.56 167.78L300.56 168.15Q300.56 175.16 303.91 179.69Q304.35 180.3 304.86 180.85Q306.31 182.46 308.08 183.53Q311.57 185.62 316.31 185.62Q320.46 185.62 323.73 183.93Q324.16 183.71 324.58 183.46Q325.84 182.7 326.89 181.72Q328.83 179.92 330.08 177.37Q332 173.43 332 168.43L331.97 166.65Q331.68 160.62 328.71 156.56Q328.09 155.72 327.36 154.96Q325.98 153.54 324.33 152.58Q320.88 150.56 316.25 150.56Q312.27 150.56 309.08 152.14Q308.56 152.4 308.06 152.7Q307.02 153.32 306.12 154.1Q303.92 156 302.53 158.82ZM418.11 183.39Q421.83 185.62 426.89 185.62Q431.11 185.62 434.5 183.95Q436.65 182.89 438.25 181.29Q439.18 180.36 439.92 179.25L435.83 175.34Q434.09 177.58 431.8 178.63Q429.78 179.56 427.33 179.56Q425.01 179.56 423.18 178.61Q422.08 178.04 421.16 177.12Q420.86 176.83 420.6 176.51Q418.66 174.18 418.36 170.5L440.45 170.5L440.45 167.43Q440.45 159.37 436.69 154.96Q435.71 153.82 434.53 152.98Q431.13 150.56 426.02 150.56Q423.27 150.56 420.85 151.44Q419.44 151.96 418.14 152.78Q417.1 153.43 416.2 154.24Q414.03 156.17 412.66 158.98Q410.7 162.96 410.7 168.03L410.7 168.96Q410.7 174.87 413.44 178.94Q414.21 180.08 415.19 181.07Q416.53 182.43 418.11 183.39ZM113.27 185L120.87 185L120.87 151.18L92.49 151.18L92.49 185L100.09 185L100.09 157.31L113.27 157.31L113.27 185ZM214.82 157.21L225.79 157.21L225.79 151.18L196.39 151.18L196.39 157.21L207.23 157.21L207.23 185L214.82 185L214.82 157.21ZM286.21 185L293.8 185L293.8 151.18L286.21 151.18L286.21 165.28L273.05 165.28L273.05 151.18L265.46 151.18L265.46 185L273.05 185L273.05 171.34L286.21 171.34L286.21 185ZM339.1 151.18L339.1 185L354.94 185Q361.47 185 364.96 182.53Q366.29 181.58 367.12 180.31Q368.44 178.25 368.44 175.34Q368.44 173.93 367.97 172.71Q367.49 171.46 366.5 170.4Q366.36 170.25 366.22 170.11Q364.33 168.26 361.25 167.62Q364.1 166.62 365.55 164.76Q366.3 163.8 366.66 162.71Q367 161.69 367 160.56Q367 158.1 365.93 156.26Q365.04 154.71 363.38 153.6Q359.75 151.18 352.82 151.18L339.1 151.18ZM403.82 185L403.82 151.18L379.51 151.18L378.89 165.62Q378.57 172.78 377.43 175.48Q376.69 177.24 375.37 178Q374.66 178.41 373.79 178.53L372.23 178.68L372.26 185L374.6 185Q378.55 185 381.03 183.09Q382.02 182.34 382.78 181.29Q385.45 177.59 386.04 169.09L386.67 157.31L396.23 157.31L396.23 185L403.82 185ZM467.49 185L475.09 185L475.09 151.18L467.49 151.18L467.49 165.28L454.34 165.28L454.34 151.18L446.74 151.18L446.74 185L454.34 185L454.34 171.34L467.49 171.34L467.49 185ZM511.94 151.18L504.37 151.18L491.12 173.75L491.12 151.18L483.56 151.18L483.56 185L491.12 185L504.37 162.43L504.37 185L511.94 185L511.94 151.18ZM547.19 185L547.19 151.18L532.41 151.18Q526.22 151.25 522.58 154.26Q520.75 155.78 519.84 157.72Q518.94 159.65 518.94 162Q518.94 164.16 519.73 165.98Q520.09 166.82 520.61 167.59Q520.77 167.81 520.94 168.03Q522.58 170.15 525.41 171.34L517.44 185L525.32 185L532.54 172.59L539.63 172.59L539.63 185L547.19 185ZM137.37 176.6Q135.22 173.65 135.22 168.43Q135.22 162.56 137.4 159.6Q138.47 158.17 139.89 157.43Q141.4 156.65 143.31 156.65Q145.27 156.65 146.81 157.46Q148.24 158.21 149.3 159.65Q151.5 162.65 151.5 167.78Q151.5 173.56 149.36 176.56Q148.39 177.91 147.09 178.65Q145.49 179.56 143.37 179.56Q141.22 179.56 139.59 178.63Q138.32 177.9 137.37 176.6ZM310.31 176.6Q308.15 173.65 308.15 168.43Q308.15 162.56 310.34 159.6Q311.4 158.17 312.83 157.43Q314.33 156.65 316.25 156.65Q318.21 156.65 319.75 157.46Q321.17 158.21 322.23 159.65Q324.44 162.65 324.44 167.78Q324.44 173.56 322.29 176.56Q321.33 177.91 320.02 178.65Q318.43 179.56 316.31 179.56Q314.16 179.56 312.53 178.63Q311.26 177.9 310.31 176.6ZM422.65 157.45Q424.1 156.65 425.99 156.65Q428.39 156.65 429.99 157.78Q430.5 158.14 430.92 158.6Q432.7 160.56 432.95 164.37L432.95 164.93L418.49 164.93Q419.02 161.03 420.94 158.84Q421.7 157.97 422.65 157.45ZM352.94 165.15L346.69 165.15L346.69 157.21L353.29 157.21Q357.6 157.3 358.88 159.32Q359.41 160.16 359.41 161.34Q359.41 162.32 358.98 163.05Q357.74 165.15 352.94 165.15ZM527 164.25Q526.54 163.33 526.54 162.18Q526.54 161.13 526.93 160.25Q527.35 159.34 528.19 158.62Q528.25 158.57 528.31 158.52Q529.95 157.21 532.63 157.21L539.63 157.21L539.63 166.96L532.16 166.96Q530.04 166.96 528.57 165.98Q528.34 165.82 528.11 165.64Q527.39 165.03 527 164.25ZM244.36 179.28Q243.36 179.53 242.3 179.53Q240.09 179.53 238.69 178.46Q238.55 178.35 238.41 178.23Q237.93 177.8 237.61 177.28Q236.95 176.21 236.95 174.75Q236.95 173.28 237.59 172.17Q238.11 171.26 239.08 170.59Q241.2 169.12 245.42 169.12L249.52 169.12L249.52 175.5Q249.26 175.98 248.93 176.4Q248 177.62 246.53 178.43Q245.48 179.01 244.36 179.28ZM346.69 179L346.69 170.59L354.91 170.59Q358.86 170.59 360.18 172.45Q360.85 173.39 360.85 174.81Q360.85 176.23 360.18 177.17Q358.87 179 355 179L346.69 179Z" fill="#000000" fill-opacity="1.000000" fill-rule="evenodd"/>
			<path id="info" d="M499.87 228.36Q498.67 227.66 497.07 227.66Q495.69 227.66 494.59 228.22Q494.54 228.24 494.49 228.27Q493.69 228.7 493.08 229.32Q492.83 229.57 492.61 229.86Q492.97 227.61 494.14 226.27Q494.5 225.86 494.93 225.55Q495.91 224.84 497.25 224.62Q498.94 224.35 499.76 223.96Q500.58 223.57 500.99 222.93Q501.4 222.28 501.4 221.3L500.2 221.3Q500.2 221.68 500.04 222Q499.86 222.35 499.49 222.61Q498.78 223.09 497.03 223.37Q495.63 223.6 494.56 224.32Q493.51 225.02 492.77 226.18Q491.27 228.54 491.27 232.48L491.27 233.6Q491.27 235.98 492.39 237.54Q492.59 237.81 492.82 238.06Q493.37 238.65 494.03 239.03Q495.26 239.73 496.88 239.73Q498.32 239.73 499.47 239.16Q499.65 239.07 499.83 238.96Q500.35 238.65 500.78 238.23Q501.39 237.63 501.8 236.82Q502.48 235.44 502.48 233.72L502.48 233.41Q502.48 231.31 501.5 229.88Q501.27 229.54 500.98 229.24Q500.48 228.71 499.87 228.36ZM77.4 222.43L77.4 239.5L83.11 239.5Q85.71 239.5 87.17 238.22Q87.57 237.87 87.87 237.44Q88.63 236.32 88.63 234.69Q88.63 233.87 88.35 233.16Q88.12 232.58 87.72 232.07Q87.36 231.62 86.91 231.29Q86.22 230.8 85.32 230.6Q86.24 230.29 86.87 229.69Q87.1 229.46 87.3 229.2Q87.5 228.92 87.65 228.62Q88.02 227.85 88.02 226.9Q88.02 225.25 87.22 224.2Q86.96 223.85 86.6 223.56Q85.18 222.43 82.44 222.43L77.4 222.43ZM82.78 230.09L78.84 230.09L78.84 223.66L82.44 223.66Q84.51 223.66 85.54 224.44Q85.75 224.61 85.93 224.81Q86.56 225.57 86.56 226.86Q86.56 228.04 86 228.79Q85.81 229.04 85.57 229.24Q84.58 230.05 82.78 230.09ZM119.41 237.73Q119.46 238.9 119.68 239.5L121.18 239.5L121.18 239.35Q120.79 238.44 120.79 236.6L120.79 230.6Q120.76 229.21 120.1 228.27Q119.86 227.93 119.53 227.64Q119.51 227.63 119.5 227.61Q118.28 226.58 116.18 226.58Q114.53 226.58 113.3 227.3Q113 227.47 112.73 227.69Q111.72 228.48 111.44 229.48Q111.32 229.88 111.32 230.31L112.73 230.32Q112.73 229.99 112.82 229.68Q113.03 229.03 113.69 228.52Q113.78 228.44 113.88 228.38Q114.79 227.77 116.11 227.77Q117.72 227.77 118.56 228.54Q118.76 228.73 118.91 228.95Q119.39 229.65 119.39 230.68L119.39 232.12L116.85 232.12Q114.1 232.12 112.56 233.2Q111.76 233.76 111.37 234.53Q111.02 235.24 111.02 236.13Q111.02 236.97 111.34 237.65Q111.62 238.24 112.15 238.71Q112.33 238.88 112.54 239.02Q113.58 239.73 115.11 239.73Q115.86 239.73 116.57 239.55Q117.06 239.42 117.53 239.21Q118.27 238.87 118.84 238.34Q119.15 238.06 119.41 237.73ZM151.74 229.68Q151.03 231.14 151.03 232.97L151.03 233.25Q151.03 235.85 152.27 237.53Q152.43 237.75 152.61 237.95Q153.26 238.69 154.07 239.12Q155.22 239.73 156.7 239.73Q158 239.73 159.07 239.24Q159.36 239.11 159.64 238.93Q159.99 238.72 160.29 238.46Q161.12 237.74 161.64 236.67Q162.35 235.19 162.35 233.35L162.35 233.06Q162.35 230.45 161.11 228.76Q160.95 228.55 160.78 228.36Q160.15 227.64 159.36 227.21Q158.19 226.58 156.68 226.58Q155.49 226.58 154.48 227.01Q154.1 227.17 153.74 227.4Q153.36 227.64 153.02 227.94Q152.24 228.65 151.74 229.68ZM197.81 237.99Q199.12 236.25 199.12 233.28L199.12 233.09Q199.12 230.03 197.82 228.3Q197.26 227.56 196.52 227.13Q195.54 226.58 194.26 226.58Q192.78 226.58 191.69 227.24Q190.87 227.74 190.28 228.61L190.21 226.82L188.91 226.82L188.91 244.37L190.31 244.37L190.31 237.9Q190.78 238.53 191.4 238.94Q192.58 239.73 194.29 239.73Q195.42 239.73 196.32 239.27Q197.17 238.84 197.81 237.99ZM210.06 237.73Q210.12 238.9 210.33 239.5L211.83 239.5L211.83 239.35Q211.44 238.44 211.44 236.6L211.44 230.6Q211.42 229.21 210.75 228.27Q210.51 227.93 210.18 227.64Q210.17 227.63 210.15 227.61Q208.93 226.58 206.84 226.58Q205.19 226.58 203.95 227.3Q203.65 227.47 203.38 227.69Q202.37 228.48 202.09 229.48Q201.97 229.88 201.97 230.31L203.38 230.32Q203.38 229.99 203.48 229.68Q203.68 229.03 204.34 228.52Q204.43 228.44 204.53 228.38Q205.44 227.77 206.77 227.77Q208.37 227.77 209.21 228.54Q209.41 228.73 209.56 228.95Q210.05 229.65 210.05 230.68L210.05 232.12L207.5 232.12Q204.75 232.12 203.21 233.2Q202.41 233.76 202.03 234.53Q201.67 235.24 201.67 236.13Q201.67 236.97 201.99 237.65Q202.27 238.24 202.8 238.71Q202.99 238.88 203.19 239.02Q204.23 239.73 205.76 239.73Q206.52 239.73 207.23 239.55Q207.71 239.42 208.18 239.21Q208.92 238.87 209.5 238.34Q209.8 238.06 210.06 237.73ZM244.23 239.35Q245.19 239.73 246.3 239.73Q248.04 239.73 249.29 238.95Q250.15 238.41 250.79 237.49L249.91 236.82Q249.21 237.73 248.35 238.14Q247.48 238.55 246.36 238.55Q245.45 238.55 244.69 238.21Q243.88 237.85 243.25 237.11Q242.95 236.76 242.72 236.38Q242.01 235.16 242.01 233.52L242.01 233.25L251.06 233.25L251.06 232.46Q251.06 229.74 249.72 228.17L249.71 228.16Q249.23 227.6 248.64 227.25Q247.54 226.58 246.04 226.58Q245.43 226.58 244.85 226.73Q244.04 226.93 243.3 227.42Q242.98 227.63 242.69 227.89Q241.85 228.63 241.33 229.72Q240.62 231.19 240.62 233.02L240.62 233.52Q240.62 235.19 241.27 236.55Q241.3 236.63 241.34 236.71Q241.81 237.63 242.52 238.29Q242.91 238.65 243.38 238.93Q243.79 239.18 244.23 239.35ZM270.34 239.35Q271.3 239.73 272.41 239.73Q274.15 239.73 275.4 238.95Q276.26 238.41 276.9 237.49L276.02 236.82Q275.32 237.73 274.46 238.14Q273.59 238.55 272.47 238.55Q271.56 238.55 270.8 238.21Q269.99 237.85 269.36 237.11Q269.06 236.76 268.83 236.38Q268.12 235.16 268.12 233.52L268.12 233.25L277.17 233.25L277.17 232.46Q277.17 229.74 275.83 228.17L275.82 228.16Q275.34 227.6 274.75 227.25Q273.65 226.58 272.15 226.58Q271.54 226.58 270.96 226.73Q270.15 226.93 269.41 227.42Q269.09 227.63 268.8 227.89Q267.96 228.63 267.44 229.72Q266.73 231.19 266.73 233.02L266.73 233.52Q266.73 235.19 267.38 236.55Q267.41 236.63 267.45 236.71Q267.92 237.63 268.63 238.29Q269.02 238.65 269.49 238.93Q269.9 239.18 270.34 239.35ZM292.59 238.06Q291.74 238.55 290.62 238.55Q289.41 238.55 288.54 238Q288.05 237.68 287.66 237.19Q286.62 235.83 286.62 233.4L286.62 232.99Q286.62 230.52 287.66 229.15Q288.06 228.63 288.58 228.3Q289.43 227.78 290.61 227.78Q291.64 227.78 292.43 228.22Q292.78 228.41 293.08 228.69Q293.38 228.97 293.59 229.3Q294.09 230.06 294.15 231.09L295.5 231.09Q295.44 229.74 294.81 228.73Q294.5 228.24 294.05 227.82Q293.69 227.49 293.28 227.25Q292.14 226.58 290.61 226.58Q289.19 226.58 288.09 227.17Q287.91 227.26 287.75 227.37Q287.45 227.55 287.19 227.78Q286.36 228.5 285.87 229.59Q285.21 231.03 285.21 232.91L285.21 233.33Q285.21 236.22 286.62 237.94Q286.64 237.97 286.67 238Q287.2 238.63 287.87 239.03Q289.04 239.73 290.62 239.73Q291.43 239.73 292.16 239.51Q292.59 239.39 293 239.19Q293.79 238.8 294.36 238.2Q294.58 237.97 294.77 237.7Q295.11 237.21 295.29 236.67Q295.47 236.15 295.5 235.58L294.15 235.58Q294.11 236.28 293.81 236.84Q293.54 237.33 293.08 237.72Q292.85 237.91 292.59 238.06ZM298.33 229.68Q297.63 231.14 297.63 232.97L297.63 233.25Q297.63 235.85 298.86 237.53Q299.02 237.75 299.2 237.95Q299.85 238.69 300.66 239.12Q301.82 239.73 303.3 239.73Q304.59 239.73 305.66 239.24Q305.96 239.11 306.24 238.93Q306.58 238.72 306.88 238.46Q307.72 237.74 308.24 236.67Q308.95 235.19 308.95 233.35L308.95 233.06Q308.95 230.45 307.7 228.76Q307.55 228.55 307.38 228.36Q306.74 227.64 305.95 227.21Q304.78 226.58 303.27 226.58Q302.08 226.58 301.08 227.01Q300.69 227.17 300.34 227.4Q299.95 227.64 299.62 227.94Q298.83 228.65 298.33 229.68ZM327.79 239.35Q328.75 239.73 329.86 239.73Q331.6 239.73 332.85 238.95Q333.72 238.41 334.35 237.49L333.47 236.82Q332.77 237.73 331.91 238.14Q331.05 238.55 329.92 238.55Q329.01 238.55 328.25 238.21Q327.45 237.85 326.81 237.11Q326.51 236.76 326.29 236.38Q325.57 235.16 325.57 233.52L325.57 233.25L334.62 233.25L334.62 232.46Q334.62 229.74 333.28 228.17L333.27 228.16Q332.79 227.6 332.2 227.25Q331.11 226.58 329.61 226.58Q328.99 226.58 328.41 226.73Q327.6 226.93 326.86 227.42Q326.54 227.63 326.26 227.89Q325.42 228.63 324.89 229.72Q324.18 231.19 324.18 233.02L324.18 233.52Q324.18 235.19 324.83 236.55Q324.87 236.63 324.91 236.71Q325.38 237.63 326.09 238.29Q326.48 238.65 326.94 238.93Q327.35 239.18 327.79 239.35ZM346.34 237.99Q347.65 236.25 347.65 233.28L347.65 233.09Q347.65 230.03 346.35 228.3Q345.79 227.56 345.05 227.13Q344.07 226.58 342.78 226.58Q341.3 226.58 340.22 227.24Q339.4 227.74 338.81 228.61L338.74 226.82L337.44 226.82L337.44 244.37L338.84 244.37L338.84 237.9Q339.31 238.53 339.93 238.94Q341.11 239.73 342.82 239.73Q343.95 239.73 344.85 239.27Q345.7 238.84 346.34 237.99ZM399.99 238.06Q399.15 238.55 398.03 238.55Q396.81 238.55 395.95 238Q395.45 237.68 395.07 237.19Q394.02 235.83 394.02 233.4L394.02 232.99Q394.02 230.52 395.07 229.15Q395.47 228.63 395.99 228.3Q396.84 227.78 398.02 227.78Q399.05 227.78 399.83 228.22Q400.18 228.41 400.48 228.69Q400.78 228.97 401 229.3Q401.49 230.06 401.56 231.09L402.9 231.09Q402.84 229.74 402.21 228.73Q401.9 228.24 401.46 227.82Q401.1 227.49 400.69 227.25Q399.55 226.58 398.02 226.58Q396.6 226.58 395.49 227.17Q395.32 227.26 395.15 227.37Q394.86 227.55 394.6 227.78Q393.77 228.5 393.27 229.59Q392.61 231.03 392.61 232.91L392.61 233.33Q392.61 236.22 394.03 237.94Q394.05 237.97 394.07 238Q394.61 238.63 395.28 239.03Q396.45 239.73 398.03 239.73Q398.83 239.73 399.57 239.51Q400 239.39 400.4 239.19Q401.19 238.8 401.76 238.2Q401.99 237.97 402.18 237.7Q402.52 237.21 402.7 236.67Q402.87 236.15 402.9 235.58L401.56 235.58Q401.51 236.28 401.21 236.84Q400.95 237.33 400.48 237.72Q400.25 237.91 399.99 238.06ZM438.4 229.68Q437.69 231.14 437.69 232.97L437.69 233.25Q437.69 235.85 438.92 237.53Q439.08 237.75 439.26 237.95Q439.91 238.69 440.72 239.12Q441.88 239.73 443.36 239.73Q444.65 239.73 445.72 239.24Q446.02 239.11 446.3 238.93Q446.64 238.72 446.95 238.46Q447.78 237.74 448.3 236.67Q449.01 235.19 449.01 233.35L449.01 233.06Q449.01 230.45 447.76 228.76Q447.61 228.55 447.44 228.36Q446.8 227.64 446.01 227.21Q444.85 226.58 443.33 226.58Q442.15 226.58 441.14 227.01Q440.76 227.17 440.4 227.4Q440.01 227.64 439.68 227.94Q438.89 228.65 438.4 229.68ZM473.9 237.99Q475.21 236.25 475.21 233.28L475.21 233.09Q475.21 230.03 473.92 228.3Q473.35 227.56 472.61 227.13Q471.64 226.58 470.35 226.58Q468.87 226.58 467.78 227.24Q466.97 227.74 466.37 228.61L466.3 226.82L465 226.82L465 244.37L466.4 244.37L466.4 237.9Q466.87 238.53 467.49 238.94Q468.67 239.73 470.38 239.73Q471.51 239.73 472.41 239.27Q473.26 238.84 473.9 237.99ZM478.35 229.68Q477.64 231.14 477.64 232.97L477.64 233.25Q477.64 235.85 478.88 237.53Q479.04 237.75 479.22 237.95Q479.87 238.69 480.68 239.12Q481.83 239.73 483.31 239.73Q484.61 239.73 485.68 239.24Q485.98 239.11 486.26 238.93Q486.6 238.72 486.9 238.46Q487.73 237.74 488.25 236.67Q488.96 235.19 488.96 233.35L488.96 233.06Q488.96 230.45 487.72 228.76Q487.56 228.55 487.39 228.36Q486.76 227.64 485.97 227.21Q484.8 226.58 483.29 226.58Q482.1 226.58 481.1 227.01Q480.71 227.17 480.36 227.4Q479.97 227.64 479.63 227.94Q478.85 228.65 478.35 229.68ZM526.39 237.73Q526.45 238.9 526.66 239.5L528.16 239.5L528.16 239.35Q527.77 238.44 527.77 236.6L527.77 230.6Q527.74 229.21 527.08 228.27Q526.84 227.93 526.51 227.64Q526.49 227.63 526.48 227.61Q525.26 226.58 523.17 226.58Q521.51 226.58 520.28 227.3Q519.98 227.47 519.71 227.69Q518.7 228.48 518.42 229.48Q518.3 229.88 518.3 230.31L519.71 230.32Q519.71 229.99 519.8 229.68Q520.01 229.03 520.67 228.52Q520.76 228.44 520.86 228.38Q521.77 227.77 523.09 227.77Q524.7 227.77 525.54 228.54Q525.74 228.73 525.89 228.95Q526.38 229.65 526.38 230.68L526.38 232.12L523.83 232.12Q521.08 232.12 519.54 233.2Q518.74 233.76 518.35 234.53Q518 235.24 518 236.13Q518 236.97 518.32 237.65Q518.6 238.24 519.13 238.71Q519.31 238.88 519.52 239.02Q520.56 239.73 522.09 239.73Q522.84 239.73 523.56 239.55Q524.04 239.42 524.51 239.21Q525.25 238.87 525.83 238.34Q526.13 238.06 526.39 237.73ZM222.4 228.98Q222.71 229.48 222.71 230.17Q222.71 230.94 222.34 231.45Q221.68 232.37 219.79 232.42L217.62 232.42L217.62 233.64L219.56 233.64Q221.27 233.64 222.1 234.2Q222.3 234.33 222.45 234.51Q222.93 235.07 222.93 236.04Q222.93 236.66 222.68 237.13Q222.45 237.56 222.02 237.87Q221.12 238.55 219.51 238.55Q218.25 238.55 217.33 237.99Q217.17 237.89 217.02 237.78Q216.39 237.3 216.15 236.67Q216.01 236.29 216.01 235.86L214.6 235.86Q214.6 236.68 214.92 237.35Q215.26 238.09 216 238.65Q216.1 238.73 216.21 238.8Q217.55 239.72 219.51 239.72Q221.7 239.72 223.03 238.72Q223.64 238.26 223.96 237.65Q224.35 236.94 224.35 236.02Q224.35 234.95 223.85 234.23Q223.25 233.36 221.91 232.99Q222.99 232.58 223.55 231.84Q223.86 231.45 224 231Q224.12 230.61 224.12 230.19Q224.12 229.08 223.61 228.3Q223.33 227.86 222.9 227.53Q221.68 226.59 219.5 226.59Q217.81 226.59 216.58 227.34Q216.37 227.47 216.17 227.62Q215.36 228.23 215.04 229.04Q214.81 229.59 214.81 230.24L216.21 230.24Q216.21 229.85 216.34 229.5Q216.56 228.91 217.17 228.47Q217.33 228.36 217.51 228.26Q218.37 227.78 219.5 227.78Q221 227.78 221.85 228.4Q222.2 228.65 222.4 228.98ZM98.14 237.5L97.52 238.31L96.61 238.31L96.59 243.22L97.94 243.22L97.94 239.5L107.47 239.5L107.47 243.22L108.86 243.22L108.86 238.31L107.55 238.31L107.55 226.82L100.06 226.82L99.84 231.64Q99.62 235.5 98.14 237.5ZM132.96 239.5L134.37 239.5L134.37 226.82L132.96 226.82L132.96 232.5L126.13 232.5L126.13 226.82L124.72 226.82L124.72 239.5L126.13 239.5L126.13 233.68L132.96 233.68L132.96 239.5ZM146.55 239.5L147.95 239.5L147.95 226.82L146.55 226.82L146.55 232.5L139.72 232.5L139.72 226.82L138.31 226.82L138.31 239.5L139.72 239.5L139.72 233.68L146.55 233.68L146.55 239.5ZM177.4 226.82L172.36 237.6L167.34 226.82L165.5 226.82L165.5 239.5L166.89 239.5L166.89 228.85L171.86 239.5L172.86 239.5L177.73 229.09L177.73 239.5L179.14 239.5L179.14 226.82L177.4 226.82ZM227.86 237.5L227.24 238.31L226.33 238.31L226.31 243.22L227.66 243.22L227.66 239.5L237.19 239.5L237.19 243.22L238.58 243.22L238.58 238.31L237.27 238.31L237.27 226.82L229.78 226.82L229.56 231.64Q229.34 235.5 227.86 237.5ZM263.64 239.5L263.64 226.82L255.69 226.82L255.44 232.96Q255.27 235.91 254.74 237.06Q254.46 237.68 253.98 237.97Q253.57 238.22 253.01 238.23L252.58 238.25L252.58 239.5L253.12 239.5Q254.29 239.5 255.04 238.93Q255.09 238.88 255.14 238.84Q255.9 238.18 256.29 236.79Q256.68 235.41 256.82 232.77L257.04 228.02L262.23 228.02L262.23 239.5L263.64 239.5ZM311.42 237.5L310.8 238.31L309.89 238.31L309.88 243.22L311.23 243.22L311.23 239.5L320.75 239.5L320.75 243.22L322.15 243.22L322.15 238.31L320.83 238.31L320.83 226.82L313.35 226.82L313.12 231.64Q312.9 235.5 311.42 237.5ZM358.68 233.64L360.37 233.64L365.06 239.5L366.85 239.5L361.59 232.99L366.28 226.82L364.55 226.82L360.39 232.38L358.68 232.38L358.68 226.82L357.28 226.82L357.28 232.38L355.58 232.38L351.42 226.82L349.72 226.82L354.38 232.99L349.13 239.5L350.91 239.5L355.6 233.64L357.28 233.64L357.28 239.5L358.68 239.5L358.68 233.64ZM378.93 226.82L377.52 226.82L370.68 237.25L370.68 226.82L369.28 226.82L369.28 239.5L370.68 239.5L377.52 229.08L377.52 239.5L378.93 239.5L378.93 226.82ZM387.26 228.01L391.88 228.01L391.88 226.82L381.42 226.82L381.42 228.01L385.86 228.01L385.86 239.5L387.26 239.5L387.26 228.01ZM415.05 239.5L415.05 226.82L410.09 226.82Q407.98 226.82 406.75 227.85Q406.24 228.27 405.95 228.8Q405.51 229.58 405.51 230.6Q405.51 231.56 405.89 232.33Q406.03 232.63 406.23 232.9Q406.42 233.16 406.66 233.37Q407.3 233.96 408.25 234.21L405.07 239.5L406.61 239.5L409.71 234.39L413.64 234.39L413.64 239.5L415.05 239.5ZM433.2 239.5L434.61 239.5L434.61 226.82L424.97 226.82L424.97 239.5L426.37 239.5L426.37 228.02L433.2 228.02L433.2 239.5ZM451.49 237.5L450.86 238.31L449.95 238.31L449.94 243.22L451.29 243.22L451.29 239.5L460.81 239.5L460.81 243.22L462.21 243.22L462.21 238.31L460.9 238.31L460.9 226.82L453.41 226.82L453.18 231.64Q452.96 235.5 451.49 237.5ZM513.4 239.5L514.8 239.5L514.8 226.82L513.4 226.82L513.4 232.5L506.57 232.5L506.57 226.82L505.16 226.82L505.16 239.5L506.57 239.5L506.57 233.68L513.4 233.68L513.4 239.5ZM540.85 239.5L540.85 226.82L535.9 226.82Q533.79 226.82 532.55 227.85Q532.05 228.27 531.75 228.8Q531.32 229.58 531.32 230.6Q531.32 231.56 531.69 232.33Q531.84 232.63 532.04 232.9Q532.23 233.16 532.46 233.37Q533.11 233.96 534.06 234.21L530.87 239.5L532.42 239.5L535.51 234.39L539.45 234.39L539.45 239.5L540.85 239.5ZM153.4 236.8Q152.44 235.41 152.44 233.35L152.44 233.1Q152.44 230.79 153.55 229.33Q153.59 229.29 153.62 229.25Q154.22 228.5 155 228.13Q155.76 227.78 156.68 227.78Q157.53 227.78 158.26 228.08Q158.6 228.23 158.91 228.44Q159.03 228.52 159.14 228.61Q159.95 229.25 160.42 230.31Q160.96 231.52 160.96 232.97L160.96 233.24Q160.96 235.6 159.81 237.05Q159.79 237.07 159.78 237.09Q159.21 237.79 158.47 238.16Q157.68 238.55 156.7 238.55Q155.7 238.55 154.9 238.14Q154.17 237.78 153.61 237.09Q153.5 236.95 153.4 236.8ZM244.6 228.06Q245.26 227.78 246.04 227.78Q246.96 227.78 247.67 228.16Q248.2 228.44 248.62 228.93Q248.72 229.04 248.81 229.16Q249.61 230.25 249.66 231.9L249.66 232.05L242.06 232.05Q242.29 230.1 243.38 228.94Q243.93 228.35 244.6 228.06ZM270.71 228.06Q271.37 227.78 272.15 227.78Q273.07 227.78 273.78 228.16Q274.31 228.44 274.73 228.93Q274.83 229.04 274.92 229.16Q275.72 230.25 275.77 231.9L275.77 232.05L268.17 232.05Q268.4 230.1 269.49 228.94Q270.04 228.35 270.71 228.06ZM299.99 236.8Q299.03 235.41 299.03 233.35L299.03 233.1Q299.03 230.79 300.15 229.33Q300.18 229.29 300.21 229.25Q300.82 228.5 301.6 228.13Q302.35 227.78 303.27 227.78Q304.13 227.78 304.85 228.08Q305.19 228.23 305.5 228.44Q305.62 228.52 305.74 228.61Q306.54 229.25 307.01 230.31Q307.55 231.52 307.55 232.97L307.55 233.24Q307.55 235.6 306.4 237.05Q306.39 237.07 306.37 237.09Q305.8 237.79 305.07 238.16Q304.28 238.55 303.3 238.55Q302.29 238.55 301.49 238.14Q300.77 237.78 300.21 237.09Q300.09 236.95 299.99 236.8ZM328.16 228.06Q328.82 227.78 329.61 227.78Q330.52 227.78 331.24 228.16Q331.77 228.44 332.18 228.93Q332.28 229.04 332.37 229.16Q333.17 230.25 333.23 231.9L333.23 232.05L325.62 232.05Q325.86 230.1 326.94 228.94Q327.49 228.35 328.16 228.06ZM440.05 236.8Q439.09 235.41 439.09 233.35L439.09 233.1Q439.09 230.79 440.21 229.33Q440.24 229.29 440.28 229.25Q440.88 228.5 441.66 228.13Q442.41 227.78 443.33 227.78Q444.19 227.78 444.91 228.08Q445.25 228.23 445.56 228.44Q445.68 228.52 445.8 228.61Q446.6 229.25 447.07 230.31Q447.61 231.52 447.61 232.97L447.61 233.24Q447.61 235.6 446.46 237.05Q446.45 237.07 446.43 237.09Q445.87 237.79 445.13 238.16Q444.34 238.55 443.36 238.55Q442.36 238.55 441.55 238.14Q440.83 237.78 440.27 237.09Q440.16 236.95 440.05 236.8ZM480.01 236.8Q479.05 235.41 479.05 233.35L479.05 233.1Q479.05 230.79 480.16 229.33Q480.2 229.29 480.23 229.25Q480.83 228.5 481.62 228.13Q482.37 227.78 483.29 227.78Q484.15 227.78 484.87 228.08Q485.21 228.23 485.52 228.44Q485.64 228.52 485.76 228.61Q486.56 229.25 487.03 230.31Q487.57 231.52 487.57 232.97L487.57 233.24Q487.57 235.6 486.42 237.05Q486.4 237.07 486.39 237.09Q485.82 237.79 485.08 238.16Q484.3 238.55 483.31 238.55Q482.31 238.55 481.51 238.14Q480.79 237.78 480.23 237.09Q480.11 236.95 480.01 236.8ZM196.72 229.21Q197.71 230.61 197.71 233.04Q197.71 235.72 196.72 237.13Q196.26 237.8 195.62 238.15Q194.9 238.55 193.96 238.55Q192.72 238.55 191.8 238Q191.77 237.99 191.75 237.97Q191.52 237.83 191.32 237.66Q190.69 237.13 190.31 236.31L190.31 230.23Q190.75 229.16 191.54 228.56Q191.63 228.49 191.73 228.42Q191.81 228.36 191.91 228.31Q192.77 227.8 193.94 227.8Q194.9 227.8 195.63 228.21Q196.26 228.56 196.72 229.21ZM345.25 229.21Q346.24 230.61 346.24 233.04Q346.24 235.72 345.25 237.13Q344.79 237.8 344.15 238.15Q343.43 238.55 342.49 238.55Q341.25 238.55 340.32 238Q340.3 237.99 340.28 237.97Q340.05 237.83 339.85 237.66Q339.22 237.13 338.84 236.31L338.84 230.23Q339.28 229.16 340.07 228.56Q340.16 228.49 340.25 228.42Q340.34 228.36 340.43 228.31Q341.3 227.8 342.47 227.8Q343.43 227.8 344.16 228.21Q344.79 228.56 345.25 229.21ZM472.81 229.21Q473.8 230.61 473.8 233.04Q473.8 235.72 472.81 237.13Q472.35 237.8 471.71 238.15Q470.99 238.55 470.05 238.55Q468.81 238.55 467.89 238Q467.86 237.99 467.84 237.97Q467.61 237.83 467.41 237.66Q466.78 237.13 466.4 236.31L466.4 230.23Q466.84 229.16 467.63 228.56Q467.72 228.49 467.82 228.42Q467.9 228.36 468 228.31Q468.86 227.8 470.03 227.8Q470.99 227.8 471.72 228.21Q472.35 228.56 472.81 229.21ZM407.24 231.94Q406.92 231.37 406.92 230.62Q406.92 229.86 407.26 229.29Q407.45 228.97 407.76 228.71Q408.59 228.01 410.06 228.01L413.64 228.01L413.64 233.19L409.6 233.19Q408.5 233.17 407.81 232.62Q407.72 232.54 407.63 232.45Q407.39 232.22 407.24 231.94ZM533.04 231.94Q532.72 231.37 532.72 230.62Q532.72 229.86 533.06 229.29Q533.26 228.97 533.56 228.71Q534.4 228.01 535.86 228.01L539.45 228.01L539.45 233.19L535.4 233.19Q534.3 233.17 533.62 232.62Q533.52 232.54 533.43 232.45Q533.2 232.22 533.04 231.94ZM106.15 238.31L99.14 238.31Q101.04 235.96 101.25 231.42L101.4 228.13L106.15 228.13L106.15 238.31ZM235.86 238.31L228.86 238.31Q230.76 235.96 230.97 231.42L231.12 228.13L235.86 228.13L235.86 238.31ZM319.43 238.31L312.42 238.31Q314.32 235.96 314.53 231.42L314.68 228.13L319.43 228.13L319.43 238.31ZM459.49 238.31L452.48 238.31Q454.38 235.96 454.59 231.42L454.74 228.13L459.49 228.13L459.49 238.31ZM492.67 233.72L492.67 233.43Q492.67 231.75 493.44 230.6Q493.61 230.34 493.82 230.11Q494.23 229.66 494.73 229.37Q495.64 228.84 496.86 228.84Q498.08 228.84 499 229.37Q499.5 229.66 499.91 230.1Q500.19 230.4 500.4 230.73Q501.07 231.82 501.07 233.33L501.07 233.64Q501.07 235.66 500.11 236.96Q500.02 237.08 499.93 237.19Q499.46 237.74 498.87 238.07Q498.01 238.55 496.88 238.55Q495.77 238.55 494.91 238.08Q494.31 237.76 493.83 237.2Q493.68 237.02 493.54 236.83Q492.67 235.57 492.67 233.72ZM78.84 238.28L78.84 231.29L83.28 231.29Q85.08 231.29 86.11 232.18Q86.13 232.2 86.15 232.21Q86.47 232.5 86.69 232.84Q87.18 233.62 87.18 234.71Q87.18 235.92 86.63 236.74Q86.41 237.07 86.1 237.33Q86.06 237.37 86.01 237.41Q84.94 238.28 83.16 238.28L78.84 238.28ZM117.24 238.09Q116.34 238.49 115.27 238.49Q114.21 238.49 113.49 238Q113.34 237.9 113.21 237.78Q112.83 237.44 112.63 237.01Q112.42 236.56 112.42 236.02Q112.42 235.46 112.63 235.01Q112.92 234.4 113.61 233.97Q114.79 233.23 116.89 233.2L119.39 233.2L119.39 235.99Q119.21 236.42 118.93 236.78Q118.47 237.38 117.78 237.81Q117.52 237.97 117.24 238.09ZM207.89 238.09Q206.99 238.49 205.92 238.49Q204.87 238.49 204.14 238Q204 237.9 203.87 237.78Q203.48 237.44 203.28 237.01Q203.08 236.56 203.08 236.02Q203.08 235.46 203.29 235.01Q203.58 234.4 204.26 233.97Q205.44 233.23 207.54 233.2L210.05 233.2L210.05 235.99Q209.86 236.42 209.58 236.78Q209.13 237.38 208.44 237.81Q208.17 237.97 207.89 238.09ZM524.22 238.09Q523.32 238.49 522.25 238.49Q521.19 238.49 520.47 238Q520.33 237.9 520.19 237.78Q519.81 237.44 519.61 237.01Q519.4 236.56 519.4 236.02Q519.4 235.46 519.62 235.01Q519.9 234.4 520.59 233.97Q521.77 233.23 523.87 233.2L526.38 233.2L526.38 235.99Q526.19 236.42 525.91 236.78Q525.46 237.38 524.76 237.81Q524.5 237.97 524.22 238.09ZM72.78 248.37Q71.56 250.17 71.56 253.26L71.57 254.02Q71.69 256.71 72.9 258.22Q73.45 258.92 74.17 259.29Q75.02 259.74 76.11 259.74Q77.27 259.74 78.14 259.25Q78.18 259.22 78.22 259.2L78.22 264.37L79.61 264.37L79.61 259.19Q80.53 259.74 81.79 259.74Q82.92 259.74 83.79 259.27Q84.56 258.85 85.13 258.07Q86.35 256.4 86.35 253.51L86.34 252.75Q86.23 249.84 85.02 248.21Q84.4 247.39 83.58 246.98Q82.77 246.58 81.77 246.58Q80.48 246.58 79.61 247.18L79.61 241.5L78.22 241.5L78.22 247.13Q77.36 246.58 76.13 246.58Q75.08 246.58 74.26 247.01Q73.4 247.46 72.78 248.37ZM573.11 244.17L572.71 244.17L572.71 241.73L571.31 241.73L571.31 244.17L570.98 244.17Q569.22 244.17 567.77 244.83Q567.57 244.93 567.37 245.03Q566.5 245.5 565.84 246.17Q565.28 246.75 564.87 247.47Q564.61 247.91 564.43 248.39Q563.97 249.57 563.97 250.94Q563.97 252.37 564.47 253.61Q564.64 254.03 564.87 254.42Q565.28 255.15 565.85 255.72Q566.51 256.38 567.36 256.84Q567.5 256.91 567.63 256.98Q569.13 257.7 570.98 257.7L571.31 257.7L571.31 260.2L572.71 260.2L572.71 257.7L573.15 257.7Q574.84 257.68 576.25 257.04Q576.49 256.93 576.71 256.8Q577.62 256.3 578.29 255.59Q578.8 255.04 579.18 254.37Q579.39 254.01 579.54 253.63Q580.06 252.38 580.06 250.92Q580.06 249.55 579.6 248.37Q579.42 247.9 579.17 247.47Q578.77 246.76 578.21 246.2Q577.56 245.52 576.69 245.05Q576.46 244.92 576.22 244.82Q574.81 244.18 573.11 244.17ZM551.8 259.5L551.8 252.55L556.14 252.55Q558.95 252.55 560.43 251.24Q560.77 250.95 561.02 250.59Q561.91 249.39 561.91 247.53Q561.91 245.84 561.14 244.67Q560.82 244.19 560.37 243.79Q560.31 243.74 560.25 243.69Q558.73 242.43 556.17 242.43L550.36 242.43L550.36 259.5L551.8 259.5ZM556.17 251.33L551.8 251.33L551.8 243.66L556.27 243.66Q558.21 243.69 559.3 244.66Q559.34 244.7 559.38 244.74Q559.66 245.01 559.87 245.33Q560.47 246.24 560.47 247.55Q560.47 248.92 559.83 249.82Q559.63 250.1 559.37 250.33Q558.27 251.33 556.17 251.33ZM567.6 246.3Q568.98 245.36 570.99 245.36L571.31 245.36L571.31 256.52L570.6 256.51Q568.79 256.42 567.54 255.54Q567.14 255.25 566.8 254.89Q566.51 254.59 566.28 254.25Q565.38 252.9 565.38 250.94Q565.38 249.01 566.27 247.66Q566.54 247.24 566.9 246.89Q567.23 246.56 567.6 246.3ZM573.05 256.52L572.71 256.52L572.71 245.36L573.44 245.37Q575.2 245.46 576.43 246.31Q576.87 246.61 577.24 247Q577.57 247.36 577.83 247.77Q578.65 249.08 578.65 250.92Q578.65 252.84 577.77 254.19Q577.5 254.62 577.13 254.98Q576.78 255.34 576.38 255.61Q575.02 256.52 573.05 256.52ZM89.52 249.68Q88.81 251.14 88.81 252.97L88.81 253.25Q88.81 255.85 90.04 257.53Q90.2 257.75 90.38 257.95Q91.03 258.69 91.84 259.12Q93 259.73 94.48 259.73Q95.77 259.73 96.84 259.24Q97.14 259.11 97.42 258.93Q97.76 258.72 98.07 258.46Q98.9 257.74 99.42 256.67Q100.13 255.19 100.13 253.35L100.13 253.06Q100.13 250.45 98.88 248.76Q98.73 248.55 98.56 248.36Q97.92 247.64 97.14 247.21Q95.97 246.58 94.46 246.58Q93.27 246.58 92.26 247.01Q91.88 247.17 91.52 247.4Q91.13 247.64 90.8 247.94Q90.01 248.65 89.52 249.68ZM112.01 257.99Q113.32 256.25 113.32 253.28L113.32 253.09Q113.32 250.03 112.02 248.3Q111.46 247.56 110.72 247.13Q109.74 246.58 108.45 246.58Q106.97 246.58 105.89 247.24Q105.07 247.74 104.48 248.61L104.41 246.82L103.11 246.82L103.11 264.37L104.51 264.37L104.51 257.9Q104.98 258.53 105.6 258.94Q106.78 259.73 108.49 259.73Q109.62 259.73 110.52 259.27Q111.37 258.84 112.01 257.99ZM141.9 257.73Q141.96 258.9 142.17 259.5L143.67 259.5L143.67 259.35Q143.28 258.44 143.28 256.6L143.28 250.6Q143.26 249.21 142.6 248.27Q142.35 247.93 142.02 247.64Q142.01 247.63 141.99 247.61Q140.77 246.58 138.68 246.58Q137.03 246.58 135.79 247.3Q135.5 247.47 135.22 247.69Q134.22 248.48 133.93 249.48Q133.81 249.88 133.81 250.31L135.22 250.32Q135.22 249.99 135.32 249.68Q135.53 249.03 136.18 248.52Q136.27 248.44 136.37 248.38Q137.28 247.77 138.61 247.77Q140.21 247.77 141.05 248.54Q141.25 248.73 141.41 248.95Q141.89 249.65 141.89 250.68L141.89 252.12L139.35 252.12Q136.59 252.12 135.05 253.2Q134.25 253.76 133.87 254.53Q133.51 255.24 133.51 256.13Q133.51 256.97 133.83 257.65Q134.12 258.24 134.64 258.71Q134.83 258.88 135.03 259.02Q136.07 259.73 137.6 259.73Q138.36 259.73 139.07 259.55Q139.56 259.42 140.02 259.21Q140.77 258.87 141.34 258.34Q141.64 258.06 141.9 257.73ZM226.59 249.68Q225.88 251.14 225.88 252.97L225.88 253.25Q225.88 255.85 227.12 257.53Q227.28 257.75 227.46 257.95Q228.11 258.69 228.92 259.12Q230.07 259.73 231.55 259.73Q232.85 259.73 233.92 259.24Q234.21 259.11 234.49 258.93Q234.84 258.72 235.14 258.46Q235.97 257.74 236.49 256.67Q237.2 255.19 237.2 253.35L237.2 253.06Q237.2 250.45 235.96 248.76Q235.8 248.55 235.63 248.36Q235 247.64 234.21 247.21Q233.04 246.58 231.53 246.58Q230.34 246.58 229.33 247.01Q228.95 247.17 228.59 247.4Q228.21 247.64 227.87 247.94Q227.09 248.65 226.59 249.68ZM246.85 258.06Q246 258.55 244.88 258.55Q243.67 258.55 242.8 258Q242.31 257.68 241.92 257.19Q240.88 255.83 240.88 253.4L240.88 252.99Q240.88 250.52 241.92 249.15Q242.32 248.63 242.84 248.3Q243.69 247.78 244.87 247.78Q245.9 247.78 246.69 248.22Q247.04 248.41 247.34 248.69Q247.64 248.97 247.85 249.3Q248.35 250.06 248.41 251.09L249.76 251.09Q249.7 249.74 249.07 248.73Q248.76 248.24 248.31 247.82Q247.95 247.49 247.54 247.25Q246.4 246.58 244.87 246.58Q243.45 246.58 242.35 247.17Q242.17 247.26 242.01 247.37Q241.71 247.55 241.45 247.78Q240.62 248.5 240.13 249.59Q239.47 251.03 239.47 252.91L239.47 253.33Q239.47 256.22 240.88 257.94Q240.91 257.97 240.93 258Q241.46 258.63 242.14 259.03Q243.3 259.73 244.88 259.73Q245.69 259.73 246.43 259.51Q246.85 259.39 247.26 259.19Q248.05 258.8 248.62 258.2Q248.84 257.97 249.03 257.7Q249.37 257.21 249.55 256.67Q249.73 256.15 249.76 255.58L248.41 255.58Q248.37 256.28 248.07 256.84Q247.8 257.33 247.34 257.72Q247.11 257.91 246.85 258.06ZM271.71 257.73Q271.77 258.9 271.98 259.5L273.48 259.5L273.48 259.35Q273.09 258.44 273.09 256.6L273.09 250.6Q273.07 249.21 272.4 248.27Q272.16 247.93 271.83 247.64Q271.81 247.63 271.8 247.61Q270.58 246.58 268.49 246.58Q266.83 246.58 265.6 247.3Q265.3 247.47 265.03 247.69Q264.02 248.48 263.74 249.48Q263.62 249.88 263.62 250.31L265.03 250.32Q265.03 249.99 265.12 249.68Q265.33 249.03 265.99 248.52Q266.08 248.44 266.18 248.38Q267.09 247.77 268.41 247.77Q270.02 247.77 270.86 248.54Q271.06 248.73 271.21 248.95Q271.7 249.65 271.7 250.68L271.7 252.12L269.15 252.12Q266.4 252.12 264.86 253.2Q264.06 253.76 263.67 254.53Q263.32 255.24 263.32 256.13Q263.32 256.97 263.64 257.65Q263.92 258.24 264.45 258.71Q264.63 258.88 264.84 259.02Q265.88 259.73 267.41 259.73Q268.17 259.73 268.88 259.55Q269.36 259.42 269.83 259.21Q270.57 258.87 271.15 258.34Q271.45 258.06 271.71 257.73ZM290.45 249.68Q289.74 251.14 289.74 252.97L289.74 253.25Q289.74 255.85 290.98 257.53Q291.14 257.75 291.32 257.95Q291.97 258.69 292.78 259.12Q293.93 259.73 295.42 259.73Q296.71 259.73 297.78 259.24Q298.08 259.11 298.36 258.93Q298.7 258.72 299 258.46Q299.84 257.74 300.35 256.67Q301.06 255.19 301.06 253.35L301.06 253.06Q301.06 250.45 299.82 248.76Q299.67 248.55 299.49 248.36Q298.86 247.64 298.07 247.21Q296.9 246.58 295.39 246.58Q294.2 246.58 293.2 247.01Q292.81 247.17 292.46 247.4Q292.07 247.64 291.74 247.94Q290.95 248.65 290.45 249.68ZM334.02 259.35Q334.99 259.73 336.1 259.73Q337.83 259.73 339.08 258.95Q339.95 258.41 340.59 257.49L339.71 256.82Q339 257.73 338.14 258.14Q337.28 258.55 336.16 258.55Q335.25 258.55 334.49 258.21Q333.68 257.85 333.05 257.11Q332.75 256.76 332.52 256.38Q331.81 255.16 331.81 253.52L331.81 253.25L340.86 253.25L340.86 252.46Q340.86 249.74 339.51 248.17L339.5 248.16Q339.03 247.6 338.44 247.25Q337.34 246.58 335.84 246.58Q335.22 246.58 334.65 246.73Q333.84 246.93 333.1 247.42Q332.78 247.63 332.49 247.89Q331.65 248.63 331.12 249.72Q330.42 251.19 330.42 253.02L330.42 253.52Q330.42 255.19 331.06 256.55Q331.1 256.63 331.14 256.71Q331.61 257.63 332.32 258.29Q332.71 258.65 333.17 258.93Q333.58 259.18 334.02 259.35ZM412.4 257.99Q413.71 256.25 413.71 253.28L413.71 253.09Q413.71 250.03 412.42 248.3Q411.86 247.56 411.11 247.13Q410.14 246.58 408.85 246.58Q407.37 246.58 406.29 247.24Q405.47 247.74 404.88 248.61L404.81 246.82L403.51 246.82L403.51 264.37L404.9 264.37L404.9 257.9Q405.38 258.53 405.99 258.94Q407.18 259.73 408.89 259.73Q410.02 259.73 410.91 259.27Q411.76 258.84 412.4 257.99ZM424.65 257.73Q424.71 258.9 424.92 259.5L426.42 259.5L426.42 259.35Q426.04 258.44 426.04 256.6L426.04 250.6Q426.01 249.21 425.35 248.27Q425.11 247.93 424.78 247.64Q424.76 247.63 424.74 247.61Q423.52 246.58 421.43 246.58Q419.78 246.58 418.55 247.3Q418.25 247.47 417.97 247.69Q416.97 248.48 416.68 249.48Q416.57 249.88 416.57 250.31L417.97 250.32Q417.97 249.99 418.07 249.68Q418.28 249.03 418.94 248.52Q419.03 248.44 419.12 248.38Q420.04 247.77 421.36 247.77Q422.97 247.77 423.8 248.54Q424.01 248.73 424.16 248.95Q424.64 249.65 424.64 250.68L424.64 252.12L422.1 252.12Q419.35 252.12 417.8 253.2Q417.01 253.76 416.62 254.53Q416.26 255.24 416.26 256.13Q416.26 256.97 416.59 257.65Q416.87 258.24 417.39 258.71Q417.58 258.88 417.79 259.02Q418.83 259.73 420.35 259.73Q421.11 259.73 421.82 259.55Q422.31 259.42 422.77 259.21Q423.52 258.87 424.09 258.34Q424.4 258.06 424.65 257.73ZM470.38 259.35Q471.35 259.73 472.46 259.73Q474.19 259.73 475.44 258.95Q476.31 258.41 476.94 257.49L476.07 256.82Q475.36 257.73 474.5 258.14Q473.64 258.55 472.52 258.55Q471.61 258.55 470.85 258.21Q470.04 257.85 469.4 257.11Q469.11 256.76 468.88 256.38Q468.17 255.16 468.17 253.52L468.17 253.25L477.21 253.25L477.21 252.46Q477.21 249.74 475.87 248.17L475.86 248.16Q475.39 247.6 474.79 247.25Q473.7 246.58 472.2 246.58Q471.58 246.58 471 246.73Q470.19 246.93 469.46 247.42Q469.13 247.63 468.85 247.89Q468.01 248.63 467.48 249.72Q466.77 251.19 466.77 253.02L466.77 253.52Q466.77 255.19 467.42 256.55Q467.46 256.63 467.5 256.71Q467.97 257.63 468.68 258.29Q469.07 258.65 469.53 258.93Q469.94 259.18 470.38 259.35ZM500.31 258.06Q499.47 258.55 498.34 258.55Q497.13 258.55 496.26 258Q495.77 257.68 495.39 257.19Q494.34 255.83 494.34 253.4L494.34 252.99Q494.34 250.52 495.39 249.15Q495.78 248.63 496.3 248.3Q497.16 247.78 498.33 247.78Q499.36 247.78 500.15 248.22Q500.5 248.41 500.8 248.69Q501.1 248.97 501.32 249.3Q501.81 250.06 501.87 251.09L503.22 251.09Q503.16 249.74 502.53 248.73Q502.22 248.24 501.77 247.82Q501.41 247.49 501 247.25Q499.86 246.58 498.33 246.58Q496.91 246.58 495.81 247.17Q495.63 247.26 495.47 247.37Q495.17 247.55 494.91 247.78Q494.09 248.5 493.59 249.59Q492.93 251.03 492.93 252.91L492.93 253.33Q492.93 256.22 494.34 257.94Q494.37 257.97 494.39 258Q494.92 258.63 495.6 259.03Q496.76 259.73 498.34 259.73Q499.15 259.73 499.89 259.51Q500.31 259.39 500.72 259.19Q501.51 258.8 502.08 258.2Q502.3 257.97 502.49 257.7Q502.83 257.21 503.02 256.67Q503.19 256.15 503.22 255.58L501.87 255.58Q501.83 256.28 501.53 256.84Q501.26 257.33 500.8 257.72Q500.57 257.91 500.31 258.06ZM538.87 257.73Q538.93 258.9 539.14 259.5L540.64 259.5L540.64 259.35Q540.26 258.44 540.26 256.6L540.26 250.6Q540.23 249.21 539.57 248.27Q539.33 247.93 539 247.64Q538.98 247.63 538.96 247.61Q537.74 246.58 535.65 246.58Q534 246.58 532.77 247.3Q532.47 247.47 532.19 247.69Q531.19 248.48 530.9 249.48Q530.79 249.88 530.79 250.31L532.19 250.32Q532.19 249.99 532.29 249.68Q532.5 249.03 533.15 248.52Q533.25 248.44 533.34 248.38Q534.26 247.77 535.58 247.77Q537.19 247.77 538.02 248.54Q538.23 248.73 538.38 248.95Q538.86 249.65 538.86 250.68L538.86 252.12L536.32 252.12Q533.57 252.12 532.02 253.2Q531.23 253.76 530.84 254.53Q530.48 255.24 530.48 256.13Q530.48 256.97 530.81 257.65Q531.09 258.24 531.61 258.71Q531.8 258.88 532.01 259.02Q533.05 259.73 534.57 259.73Q535.33 259.73 536.04 259.55Q536.53 259.42 536.99 259.21Q537.74 258.87 538.31 258.34Q538.62 258.06 538.87 257.73ZM54.65 246.82L53.25 246.82L46.4 257.25L46.4 246.82L45.01 246.82L45.01 259.5L46.4 259.5L53.25 249.08L53.25 259.5L54.65 259.5L54.65 246.82ZM66.83 259.5L68.24 259.5L68.24 246.82L66.83 246.82L66.83 252.5L60 252.5L60 246.82L58.6 246.82L58.6 259.5L60 259.5L60 253.68L66.83 253.68L66.83 259.5ZM128.58 246.82L123.54 257.6L118.52 246.82L116.68 246.82L116.68 259.5L118.07 259.5L118.07 248.85L123.04 259.5L124.04 259.5L128.91 249.09L128.91 259.5L130.32 259.5L130.32 246.82L128.58 246.82ZM148.62 246.82L147.22 246.82L147.22 259.5L156.75 259.5L156.75 263.26L158.04 263.26L158.15 258.31L156.86 258.31L156.86 246.82L155.45 246.82L155.45 258.31L148.62 258.31L148.62 246.82ZM170.62 246.82L169.22 246.82L162.37 257.25L162.37 246.82L160.98 246.82L160.98 259.5L162.37 259.5L169.22 249.08L169.22 259.5L170.62 259.5L170.62 246.82ZM183.72 259.5L183.72 246.82L178.76 246.82Q176.65 246.82 175.42 247.85Q174.92 248.27 174.62 248.8Q174.18 249.58 174.18 250.6Q174.18 251.56 174.56 252.33Q174.7 252.63 174.9 252.9Q175.1 253.16 175.33 253.37Q175.97 253.96 176.92 254.21L173.74 259.5L175.28 259.5L178.38 254.39L182.31 254.39L182.31 259.5L183.72 259.5ZM203.28 246.82L201.87 246.82L195.03 257.25L195.03 246.82L193.64 246.82L193.64 259.5L195.03 259.5L201.87 249.08L201.87 259.5L203.28 259.5L203.28 246.82ZM221.4 259.5L222.8 259.5L222.8 246.82L213.16 246.82L213.16 259.5L214.57 259.5L214.57 248.02L221.4 248.02L221.4 259.5ZM257.15 248.01L261.76 248.01L261.76 246.82L251.3 246.82L251.3 248.01L255.74 248.01L255.74 259.5L257.15 259.5L257.15 248.01ZM285.26 259.5L286.67 259.5L286.67 246.82L285.26 246.82L285.26 252.5L278.43 252.5L278.43 246.82L277.02 246.82L277.02 259.5L278.43 259.5L278.43 253.68L285.26 253.68L285.26 259.5ZM304.21 246.82L304.21 259.5L309.63 259.5Q311.89 259.5 313.12 258.57Q313.61 258.21 313.91 257.73Q314.36 256.99 314.36 255.98Q314.36 255.47 314.2 255.02Q314.01 254.49 313.6 254.05Q313.44 253.86 313.25 253.71Q312.58 253.16 311.6 252.98Q312.71 252.64 313.28 251.9Q313.55 251.54 313.7 251.14Q313.85 250.7 313.85 250.2Q313.85 249.24 313.42 248.54Q313.11 248.04 312.57 247.68Q311.28 246.82 308.86 246.82L304.21 246.82ZM327.33 259.5L327.33 246.82L319.38 246.82L319.12 252.96Q318.96 255.91 318.43 257.06Q318.15 257.68 317.66 257.97Q317.25 258.22 316.7 258.23L316.26 258.25L316.26 259.5L316.8 259.5Q317.98 259.5 318.72 258.93Q318.78 258.88 318.83 258.84Q319.59 258.18 319.98 256.79Q320.37 255.41 320.51 252.77L320.73 248.02L325.92 248.02L325.92 259.5L327.33 259.5ZM352.02 259.5L353.43 259.5L353.43 246.82L352.02 246.82L352.02 252.5L345.19 252.5L345.19 246.82L343.78 246.82L343.78 259.5L345.19 259.5L345.19 253.68L352.02 253.68L352.02 259.5ZM367.01 246.82L365.61 246.82L358.76 257.25L358.76 246.82L357.37 246.82L357.37 259.5L358.76 259.5L365.61 249.08L365.61 259.5L367.01 259.5L367.01 246.82ZM380.11 259.5L380.11 246.82L375.15 246.82Q373.04 246.82 371.81 247.85Q371.3 248.27 371.01 248.8Q370.57 249.58 370.57 250.6Q370.57 251.56 370.95 252.33Q371.09 252.63 371.29 252.9Q371.48 253.16 371.72 253.37Q372.36 253.96 373.31 254.21L370.13 259.5L371.67 259.5L374.77 254.39L378.7 254.39L378.7 259.5L380.11 259.5ZM398.26 259.5L399.67 259.5L399.67 246.82L390.02 246.82L390.02 259.5L391.43 259.5L391.43 248.02L398.26 248.02L398.26 259.5ZM430.03 246.82L430.03 259.5L435.44 259.5Q437.7 259.5 438.94 258.57Q439.43 258.21 439.73 257.73Q440.18 256.99 440.18 255.98Q440.18 255.47 440.02 255.02Q439.83 254.49 439.42 254.05Q439.26 253.86 439.07 253.71Q438.39 253.16 437.42 252.98Q438.52 252.64 439.1 251.9Q439.37 251.54 439.51 251.14Q439.67 250.7 439.67 250.2Q439.67 249.24 439.24 248.54Q438.93 248.04 438.38 247.68Q437.09 246.82 434.68 246.82L430.03 246.82ZM453.13 246.82L451.73 246.82L444.88 257.25L444.88 246.82L443.49 246.82L443.49 259.5L444.88 259.5L451.73 249.08L451.73 259.5L453.13 259.5L453.13 246.82ZM461.47 248.01L466.09 248.01L466.09 246.82L455.62 246.82L455.62 248.01L460.06 248.01L460.06 259.5L461.47 259.5L461.47 248.01ZM489.79 259.5L489.79 246.82L481.85 246.82L481.59 252.96Q481.43 255.91 480.9 257.06Q480.62 257.68 480.13 257.97Q479.72 258.22 479.17 258.23L478.73 258.25L478.73 259.5L479.27 259.5Q480.45 259.5 481.19 258.93Q481.25 258.88 481.3 258.84Q482.06 258.18 482.45 256.79Q482.83 255.41 482.97 252.77L483.2 248.02L488.39 248.02L488.39 259.5L489.79 259.5ZM510.61 248.01L515.23 248.01L515.23 246.82L504.76 246.82L504.76 248.01L509.2 248.01L509.2 259.5L510.61 259.5L510.61 248.01ZM517.77 246.82L517.77 259.5L523.19 259.5Q525.45 259.5 526.69 258.57Q527.18 258.21 527.47 257.73Q527.92 256.99 527.92 255.98Q527.92 255.47 527.76 255.02Q527.57 254.49 527.17 254.05Q527 253.86 526.81 253.71Q526.14 253.16 525.17 252.98Q526.27 252.64 526.84 251.9Q527.12 251.54 527.26 251.14Q527.42 250.7 527.42 250.2Q527.42 249.24 526.99 248.54Q526.67 248.04 526.13 247.68Q524.84 246.82 522.43 246.82L517.77 246.82ZM73.85 257.23Q72.97 255.9 72.97 253.51Q72.97 250.69 73.87 249.24Q74.35 248.44 75.06 248.08Q75.66 247.78 76.4 247.78Q77.54 247.78 78.22 248.26L78.22 258.08Q77.48 258.56 76.38 258.56Q75.49 258.56 74.82 258.17Q74.25 257.84 73.85 257.23ZM84.04 249.24Q84.96 250.71 84.96 253.26Q84.96 255.92 84.04 257.24Q83.61 257.86 83.01 258.19Q82.35 258.56 81.49 258.56Q80.35 258.56 79.61 258.1L79.61 248.29Q80.27 247.78 81.47 247.78Q82.21 247.78 82.81 248.07Q83.53 248.44 84.04 249.24ZM91.17 256.8Q90.21 255.41 90.21 253.35L90.21 253.1Q90.21 250.79 91.33 249.33Q91.36 249.29 91.4 249.25Q92 248.5 92.78 248.13Q93.54 247.78 94.46 247.78Q95.31 247.78 96.03 248.08Q96.37 248.23 96.68 248.44Q96.8 248.52 96.92 248.61Q97.72 249.25 98.19 250.31Q98.73 251.52 98.73 252.97L98.73 253.24Q98.73 255.6 97.58 257.05Q97.57 257.07 97.56 257.09Q96.99 257.79 96.25 258.16Q95.46 258.55 94.48 258.55Q93.48 258.55 92.68 258.14Q91.95 257.78 91.39 257.09Q91.28 256.95 91.17 256.8ZM228.25 256.8Q227.29 255.41 227.29 253.35L227.29 253.1Q227.29 250.79 228.4 249.33Q228.44 249.29 228.47 249.25Q229.07 248.5 229.85 248.13Q230.61 247.78 231.53 247.78Q232.38 247.78 233.11 248.08Q233.45 248.23 233.76 248.44Q233.88 248.52 233.99 248.61Q234.8 249.25 235.27 250.31Q235.81 251.52 235.81 252.97L235.81 253.24Q235.81 255.6 234.66 257.05Q234.64 257.07 234.63 257.09Q234.06 257.79 233.32 258.16Q232.53 258.55 231.55 258.55Q230.55 258.55 229.75 258.14Q229.02 257.78 228.46 257.09Q228.35 256.95 228.25 256.8ZM292.11 256.8Q291.15 255.41 291.15 253.35L291.15 253.1Q291.15 250.79 292.26 249.33Q292.3 249.29 292.33 249.25Q292.94 248.5 293.72 248.13Q294.47 247.78 295.39 247.78Q296.25 247.78 296.97 248.08Q297.31 248.23 297.62 248.44Q297.74 248.52 297.86 248.61Q298.66 249.25 299.13 250.31Q299.67 251.52 299.67 252.97L299.67 253.24Q299.67 255.6 298.52 257.05Q298.51 257.07 298.49 257.09Q297.92 257.79 297.19 258.16Q296.4 258.55 295.42 258.55Q294.41 258.55 293.61 258.14Q292.89 257.78 292.33 257.09Q292.21 256.95 292.11 256.8ZM334.4 248.06Q335.06 247.78 335.84 247.78Q336.76 247.78 337.47 248.16Q338 248.44 338.42 248.93Q338.52 249.04 338.6 249.16Q339.41 250.25 339.46 251.9L339.46 252.05L331.86 252.05Q332.09 250.1 333.17 248.94Q333.72 248.35 334.4 248.06ZM470.76 248.06Q471.42 247.78 472.2 247.78Q473.11 247.78 473.83 248.16Q474.36 248.44 474.78 248.93Q474.87 249.04 474.96 249.16Q475.77 250.25 475.82 251.9L475.82 252.05L468.21 252.05Q468.45 250.1 469.53 248.94Q470.08 248.35 470.76 248.06ZM110.92 249.21Q111.91 250.61 111.91 253.04Q111.91 255.72 110.92 257.13Q110.46 257.8 109.82 258.15Q109.1 258.55 108.16 258.55Q106.92 258.55 105.99 258Q105.97 257.99 105.95 257.97Q105.72 257.83 105.52 257.66Q104.89 257.13 104.51 256.31L104.51 250.23Q104.95 249.16 105.74 248.56Q105.83 248.49 105.92 248.42Q106.01 248.36 106.1 248.31Q106.97 247.8 108.14 247.8Q109.1 247.8 109.83 248.21Q110.46 248.56 110.92 249.21ZM411.31 249.21Q412.31 250.61 412.31 253.04Q412.31 255.72 411.32 257.13Q410.85 257.8 410.22 258.15Q409.5 258.55 408.56 258.55Q407.31 258.55 406.39 258Q406.37 257.99 406.34 257.97Q406.12 257.83 405.91 257.66Q405.28 257.13 404.9 256.31L404.9 250.23Q405.34 249.16 406.13 248.56Q406.22 248.49 406.32 248.42Q406.41 248.36 406.5 248.31Q407.37 247.8 408.53 247.8Q409.49 247.8 410.23 248.21Q410.85 248.56 411.31 249.21ZM175.91 251.94Q175.59 251.37 175.59 250.62Q175.59 249.86 175.93 249.29Q176.12 248.97 176.43 248.71Q177.26 248.01 178.73 248.01L182.31 248.01L182.31 253.19L178.27 253.19Q177.17 253.17 176.48 252.62Q176.39 252.54 176.3 252.45Q176.06 252.22 175.91 251.94ZM309.16 252.49L305.6 252.49L305.6 248.01L308.86 248.01Q310.64 248.01 311.55 248.54Q311.92 248.76 312.14 249.08Q312.46 249.54 312.46 250.24Q312.46 250.91 312.15 251.38Q311.45 252.46 309.16 252.49ZM372.3 251.94Q371.98 251.37 371.98 250.62Q371.98 249.86 372.32 249.29Q372.51 248.97 372.81 248.71Q373.65 248.01 375.12 248.01L378.7 248.01L378.7 253.19L374.66 253.19Q373.55 253.17 372.87 252.62Q372.78 252.54 372.69 252.45Q372.45 252.22 372.3 251.94ZM434.97 252.49L431.42 252.49L431.42 248.01L434.68 248.01Q436.46 248.01 437.37 248.54Q437.74 248.76 437.95 249.08Q438.28 249.54 438.28 250.24Q438.28 250.91 437.97 251.38Q437.27 252.46 434.97 252.49ZM522.72 252.49L519.17 252.49L519.17 248.01L522.43 248.01Q524.21 248.01 525.12 248.54Q525.48 248.76 525.7 249.08Q526.02 249.54 526.02 250.24Q526.02 250.91 525.72 251.38Q525.02 252.46 522.72 252.49ZM139.73 258.09Q138.84 258.49 137.76 258.49Q136.71 258.49 135.98 258Q135.84 257.9 135.71 257.78Q135.32 257.44 135.12 257.01Q134.92 256.56 134.92 256.01Q134.92 255.46 135.13 255.01Q135.42 254.4 136.1 253.97Q137.28 253.23 139.38 253.2L141.89 253.2L141.89 255.99Q141.7 256.42 141.42 256.78Q140.97 257.38 140.28 257.81Q140.01 257.97 139.73 258.09ZM269.54 258.09Q268.64 258.49 267.57 258.49Q266.51 258.49 265.79 258Q265.65 257.9 265.51 257.78Q265.13 257.44 264.93 257.01Q264.72 256.56 264.72 256.01Q264.72 255.46 264.94 255.01Q265.22 254.4 265.91 253.97Q267.09 253.23 269.19 253.2L271.7 253.2L271.7 255.99Q271.51 256.42 271.23 256.78Q270.78 257.38 270.08 257.81Q269.82 257.97 269.54 258.09ZM422.49 258.09Q421.59 258.49 420.52 258.49Q419.46 258.49 418.74 258Q418.59 257.9 418.46 257.78Q418.07 257.44 417.88 257.01Q417.67 256.56 417.67 256.01Q417.67 255.46 417.88 255.01Q418.17 254.4 418.85 253.97Q420.04 253.23 422.13 253.2L424.64 253.2L424.64 255.99Q424.45 256.42 424.18 256.78Q423.72 257.38 423.03 257.81Q422.77 257.97 422.49 258.09ZM536.71 258.09Q535.81 258.49 534.74 258.49Q533.68 258.49 532.96 258Q532.81 257.9 532.68 257.78Q532.29 257.44 532.1 257.01Q531.89 256.56 531.89 256.01Q531.89 255.46 532.1 255.01Q532.39 254.4 533.07 253.97Q534.26 253.23 536.35 253.2L538.86 253.2L538.86 255.99Q538.67 256.42 538.4 256.78Q537.94 257.38 537.25 257.81Q536.99 257.97 536.71 258.09ZM305.6 258.32L305.6 253.66L309.67 253.66Q311.25 253.66 312.11 254.28Q312.54 254.59 312.75 255.01Q312.97 255.43 312.97 255.96Q312.97 256.65 312.65 257.15Q312.45 257.47 312.11 257.71Q311.25 258.32 309.67 258.32L305.6 258.32ZM431.42 258.32L431.42 253.66L435.49 253.66Q437.07 253.66 437.93 254.28Q438.36 254.59 438.57 255.01Q438.78 255.43 438.78 255.96Q438.78 256.65 438.47 257.15Q438.26 257.47 437.93 257.71Q437.07 258.32 435.49 258.32L431.42 258.32ZM519.17 258.32L519.17 253.66L523.24 253.66Q524.82 253.66 525.67 254.28Q526.1 254.59 526.32 255.01Q526.53 255.43 526.53 255.96Q526.53 256.65 526.21 257.15Q526.01 257.47 525.67 257.71Q524.82 258.32 523.24 258.32L519.17 258.32Z" fill="#000000" fill-opacity="1.000000" fill-rule="evenodd"/>
			<rect id="round" rx="194.500000" width="389.000000" height="392.000000" transform="translate(610.000000 -26.000000)" fill="#F4822B" fill-opacity="1.000000"/>
		</g>
	</g>
</svg>
