<svg width="938.000000" height="347.000000" viewBox="0 0 938 347" fill="none" xmlns="http://www.w3.org/2000/svg" xmlns:xlink="http://www.w3.org/1999/xlink">
	<desc>
			Created with Pixso.
	</desc>
	<defs>
		<filter id="filter_85_48135_dd" x="0.000000" y="0.000000" width="938.000000" height="347.000000" filterUnits="userSpaceOnUse" color-interpolation-filters="sRGB">
			<feFlood flood-opacity="0" result="BackgroundImageFix"/>
			<feColorMatrix in="SourceAlpha" type="matrix" values="0 0 0 0 0 0 0 0 0 0 0 0 0 0 0 0 0 0 127 0" result="hardAlpha"/>
			<feOffset dx="0" dy="4"/>
			<feGaussianBlur stdDeviation="3.33333"/>
			<feComposite in2="hardAlpha" operator="out" k2="-1" k3="1"/>
			<feColorMatrix type="matrix" values="0 0 0 0 0 0 0 0 0 0 0 0 0 0 0 0 0 0 0.25 0"/>
			<feBlend mode="normal" in2="BackgroundImageFix" result="effect_dropShadow_1"/>
			<feBlend mode="normal" in="SourceGraphic" in2="effect_dropShadow_1" result="shape"/>
		</filter>
		<clipPath id="clip85_48135">
			<rect id="route" rx="25.000000" width="918.000000" height="327.000000" transform="translate(10.000000 6.000000)" fill="white" fill-opacity="0"/>
		</clipPath>
	</defs>
	<g filter="url(#filter_85_48135_dd)">
		<rect id="route" rx="25.000000" width="918.000000" height="327.000000" transform="translate(10.000000 6.000000)" fill="#FFFFFF" fill-opacity="1.000000"/>
		<g clip-path="url(#clip85_48135)">
			<path id="title" d="M199.1 158.87L185.97 124L175.72 124L175.72 169.5L183.6 169.5L183.6 154.5L182.82 134.46L196.22 169.5L201.88 169.5L215.32 134.43L214.54 154.5L214.54 169.5L222.41 169.5L222.41 124L212.19 124L199.1 158.87ZM250.45 166.34Q250.82 168.53 251.32 169.5L259.07 169.5L259.07 168.96Q257.79 166.25 257.79 161.68L257.79 146.43Q257.72 142.53 255.86 139.89Q255.15 138.87 254.17 138.04Q254.07 137.96 253.97 137.88Q250.47 135.06 244.7 135.06Q240.79 135.06 237.62 136.43Q234.54 137.77 232.72 140.08Q232.66 140.16 232.6 140.23Q231.28 141.97 230.91 143.89Q230.76 144.64 230.76 145.43L238.35 145.43Q238.35 144.56 238.67 143.83Q239.07 142.87 240.01 142.14Q240.09 142.07 240.18 142.01Q241.8 140.84 244.26 140.84Q247.11 140.84 248.58 142.26Q248.66 142.34 248.73 142.42Q248.96 142.66 249.15 142.93Q250.2 144.4 250.2 146.62L250.2 148.84L245.54 148.84Q238.07 148.84 234.06 151.73Q232.47 152.87 231.52 154.4Q230.04 156.75 230.04 160.03Q230.04 162.08 230.79 163.82Q231.59 165.7 233.26 167.21Q233.91 167.8 234.63 168.27Q237.51 170.12 241.57 170.12Q244.22 170.12 246.45 169.16Q248.65 168.22 250.45 166.34ZM291.89 165.45Q295.45 160.78 295.45 152.93L295.45 152.46Q295.45 144.28 291.94 139.67Q290.47 137.74 288.54 136.62Q285.84 135.06 282.24 135.06Q278.67 135.06 276.03 136.62Q274.41 137.58 273.14 139.12L272.83 135.68L265.83 135.68L265.83 182.5L273.42 182.5L273.42 166.46Q274.51 167.65 275.83 168.46Q278.58 170.12 282.33 170.12Q285.49 170.12 287.97 168.82Q290.21 167.66 291.89 165.45ZM380.56 165.45Q384.12 160.78 384.12 152.93L384.12 152.46Q384.12 144.28 380.61 139.67Q379.14 137.74 377.21 136.62Q374.51 135.06 370.9 135.06Q367.34 135.06 364.69 136.62Q363.08 137.58 361.81 139.12L361.5 135.68L354.5 135.68L354.5 182.5L362.09 182.5L362.09 166.46Q363.18 167.65 364.5 168.46Q367.25 170.12 371 170.12Q374.16 170.12 376.64 168.82Q378.87 167.66 380.56 165.45ZM309.87 163.43L309.87 135.68L302.27 135.68L302.27 169.5L346.18 169.5L346.18 135.68L338.62 135.68L338.62 163.43L328.02 163.43L328.02 135.68L320.43 135.68L320.43 163.43L309.87 163.43ZM409 135.68L402.13 158.62L394.97 135.68L386.79 135.68L398.66 169.34L397.57 172.25Q396.72 174.71 395.27 175.76Q393.82 176.81 390.94 176.81L389.5 176.71L389.5 182.59Q391.5 183.15 393.16 183.15Q395.75 183.15 397.81 182.11Q401.65 180.17 403.66 174.62L417.1 135.68L409 135.68ZM437.2 141.71L448.17 141.71L448.17 135.68L418.76 135.68L418.76 141.71L429.6 141.71L429.6 169.5L437.2 169.5L437.2 141.71ZM468.92 146.43L461.49 146.43L461.49 135.68L453.89 135.68L453.89 169.5L468.99 169.5Q474.77 169.47 478.38 166.65Q478.59 166.48 478.8 166.31Q480.26 165.05 481.15 163.48Q482.49 161.08 482.49 157.93Q482.49 154.91 481.24 152.55Q481.07 152.22 480.88 151.9Q480.6 151.45 480.28 151.04Q478.73 149.06 476.17 147.87Q473.08 146.43 468.92 146.43ZM488.11 169.5L495.7 169.5L495.7 135.68L488.11 135.68L488.11 169.5ZM285.88 144.25Q287.89 147.21 287.89 152.28Q287.89 158.21 285.85 161.14Q284.86 162.54 283.51 163.27Q282.05 164.06 280.17 164.06Q277.6 164.06 275.81 162.87Q274.35 161.89 273.42 160.12L273.42 145.12Q274.31 143.45 275.69 142.5Q277.48 141.28 280.11 141.28Q282.17 141.28 283.71 142.17Q284.97 142.91 285.88 144.25ZM374.55 144.25Q376.56 147.21 376.56 152.28Q376.56 158.21 374.51 161.14Q373.53 162.54 372.18 163.27Q370.72 164.06 368.84 164.06Q366.27 164.06 364.48 162.87Q363.02 161.89 362.09 160.12L362.09 145.12Q362.98 143.45 364.36 142.5Q366.15 141.28 368.78 141.28Q370.84 141.28 372.38 142.17Q373.64 142.91 374.55 144.25ZM461.49 163.43L461.49 152.53L469.05 152.53Q471.41 152.55 472.91 153.7Q473.12 153.86 473.31 154.04Q473.7 154.4 473.99 154.83Q474.89 156.15 474.89 158.09Q474.89 160.03 473.97 161.3Q473.67 161.71 473.28 162.04Q473.26 162.06 473.24 162.08Q471.63 163.43 468.89 163.43L461.49 163.43ZM245.04 163.78Q244.04 164.03 242.98 164.03Q240.77 164.03 239.37 162.96Q239.23 162.85 239.09 162.73Q238.61 162.3 238.29 161.78Q237.64 160.71 237.64 159.25Q237.64 157.78 238.27 156.67Q238.8 155.76 239.76 155.09Q241.89 153.62 246.1 153.62L250.2 153.62L250.2 160Q249.94 160.48 249.61 160.9Q248.68 162.12 247.21 162.93Q246.17 163.51 245.04 163.78Z" fill="#000000" fill-opacity="1.000000" fill-rule="evenodd"/>
			<path id="info" d="M249.3 201.36Q248.1 200.66 246.49 200.66Q245.11 200.66 244.02 201.22Q243.97 201.24 243.92 201.27Q243.12 201.7 242.51 202.32Q242.26 202.57 242.04 202.86Q242.39 200.61 243.57 199.27Q243.93 198.86 244.36 198.55Q245.34 197.84 246.68 197.62Q248.37 197.35 249.19 196.96Q250.01 196.57 250.42 195.93Q250.83 195.28 250.83 194.3L249.62 194.3Q249.62 194.68 249.47 195Q249.29 195.35 248.91 195.61Q248.2 196.09 246.46 196.37Q245.06 196.6 243.99 197.32Q242.93 198.02 242.19 199.18Q240.69 201.54 240.69 205.48L240.69 206.6Q240.69 208.98 241.82 210.54Q242.02 210.81 242.25 211.06Q242.79 211.65 243.46 212.03Q244.68 212.73 246.31 212.73Q247.74 212.73 248.9 212.16Q249.08 212.07 249.25 211.96Q249.78 211.65 250.21 211.23Q250.82 210.63 251.22 209.82Q251.91 208.44 251.91 206.72L251.91 206.41Q251.91 204.31 250.93 202.88Q250.7 202.54 250.41 202.24Q249.9 201.71 249.3 201.36ZM140.92 210.96Q142.23 209.57 142.49 207.18L141.04 207.18Q140.77 209.34 139.62 210.43Q138.47 211.51 136.21 211.51Q134.97 211.51 134.01 211Q133.2 210.56 132.58 209.75Q131.24 208 131.24 205.04L131.24 202.96Q131.24 199.9 132.62 198.16Q133.22 197.4 134.01 196.98Q135.01 196.43 136.32 196.43Q138.3 196.43 139.46 197.4Q140.75 198.49 141.04 200.78L142.49 200.78Q142.27 198.54 141.07 197.13Q140.87 196.89 140.65 196.68Q140.48 196.53 140.31 196.39Q138.78 195.2 136.32 195.2Q134.79 195.2 133.53 195.79Q133.2 195.95 132.88 196.15Q132.51 196.39 132.19 196.67Q131.19 197.54 130.59 198.87Q129.79 200.62 129.79 202.9L129.79 205.11Q129.8 207.35 130.6 209.09Q131.23 210.48 132.29 211.36Q132.56 211.59 132.85 211.78Q133.2 212.01 133.57 212.18Q134.76 212.73 136.21 212.73Q138.7 212.73 140.28 211.53Q140.43 211.42 140.56 211.3Q140.75 211.14 140.92 210.96ZM539.98 196.73Q540.34 196.09 540.34 195.25L539.14 195.25Q539.14 195.93 538.83 196.4Q538.71 196.57 538.56 196.71Q538.53 196.74 538.49 196.77Q537.92 197.25 536.95 197.25Q535.93 197.25 535.35 196.74L535.34 196.73Q535.23 196.64 535.15 196.53Q534.76 196.04 534.76 195.25L533.57 195.25Q533.57 196.1 533.93 196.74Q534.15 197.12 534.5 197.43Q534.62 197.54 534.74 197.63Q535.62 198.26 536.95 198.26Q538.33 198.26 539.21 197.59Q539.32 197.51 539.42 197.43Q539.76 197.11 539.98 196.73ZM179.6 211.06Q178.75 211.55 177.63 211.55Q176.42 211.55 175.55 211Q175.06 210.68 174.67 210.19Q173.62 208.83 173.62 206.4L173.62 205.99Q173.62 203.52 174.67 202.15Q175.07 201.63 175.59 201.3Q176.44 200.78 177.62 200.78Q178.65 200.78 179.44 201.22Q179.79 201.41 180.09 201.69Q180.39 201.97 180.6 202.3Q181.09 203.06 181.16 204.09L182.51 204.09Q182.44 202.74 181.82 201.73Q181.51 201.24 181.06 200.82Q180.7 200.49 180.29 200.25Q179.15 199.58 177.62 199.58Q176.2 199.58 175.09 200.17Q174.92 200.26 174.76 200.37Q174.46 200.55 174.2 200.78Q173.37 201.5 172.87 202.59Q172.22 204.03 172.22 205.91L172.22 206.33Q172.22 209.22 173.63 210.94Q173.65 210.97 173.68 211Q174.21 211.63 174.88 212.03Q176.05 212.73 177.63 212.73Q178.44 212.73 179.17 212.51Q179.6 212.39 180.01 212.19Q180.8 211.8 181.37 211.2Q181.59 210.97 181.78 210.7Q182.12 210.21 182.3 209.67Q182.48 209.15 182.51 208.58L181.16 208.58Q181.12 209.28 180.82 209.84Q180.55 210.33 180.09 210.72Q179.86 210.91 179.6 211.06ZM185.34 202.68Q184.63 204.14 184.63 205.97L184.63 206.25Q184.63 208.85 185.87 210.53Q186.03 210.75 186.21 210.95Q186.86 211.69 187.67 212.12Q188.82 212.73 190.31 212.73Q191.6 212.73 192.67 212.24Q192.97 212.11 193.25 211.93Q193.59 211.72 193.89 211.46Q194.73 210.74 195.25 209.67Q195.95 208.19 195.95 206.35L195.95 206.06Q195.95 203.45 194.71 201.76Q194.56 201.55 194.38 201.36Q193.75 200.64 192.96 200.21Q191.79 199.58 190.28 199.58Q189.09 199.58 188.09 200.01Q187.7 200.17 187.35 200.4Q186.96 200.64 186.63 200.94Q185.84 201.65 185.34 202.68ZM224.07 211.06Q223.23 211.55 222.11 211.55Q220.89 211.55 220.03 211Q219.53 210.68 219.15 210.19Q218.1 208.83 218.1 206.4L218.1 205.99Q218.1 203.52 219.15 202.15Q219.55 201.63 220.07 201.3Q220.92 200.78 222.09 200.78Q223.13 200.78 223.91 201.22Q224.26 201.41 224.56 201.69Q224.86 201.97 225.08 202.3Q225.57 203.06 225.63 204.09L226.98 204.09Q226.92 202.74 226.29 201.73Q225.98 201.24 225.53 200.82Q225.18 200.49 224.76 200.25Q223.63 199.58 222.09 199.58Q220.68 199.58 219.57 200.17Q219.4 200.26 219.23 200.37Q218.94 200.55 218.67 200.78Q217.85 201.5 217.35 202.59Q216.69 204.03 216.69 205.91L216.69 206.33Q216.69 209.22 218.11 210.94Q218.13 210.97 218.15 211Q218.69 211.63 219.36 212.03Q220.52 212.73 222.11 212.73Q222.91 212.73 223.65 212.51Q224.07 212.39 224.48 212.19Q225.27 211.8 225.84 211.2Q226.07 210.97 226.25 210.7Q226.6 210.21 226.78 209.67Q226.95 209.15 226.98 208.58L225.63 208.58Q225.59 209.28 225.29 209.84Q225.03 210.33 224.56 210.72Q224.33 210.91 224.07 211.06ZM261.34 211.06Q260.5 211.55 259.38 211.55Q258.17 211.55 257.3 211Q256.8 210.68 256.42 210.19Q255.37 208.83 255.37 206.4L255.37 205.99Q255.37 203.52 256.42 202.15Q256.82 201.63 257.34 201.3Q258.19 200.78 259.37 200.78Q260.4 200.78 261.18 201.22Q261.53 201.41 261.83 201.69Q262.13 201.97 262.35 202.3Q262.84 203.06 262.91 204.09L264.25 204.09Q264.19 202.74 263.57 201.73Q263.26 201.24 262.81 200.82Q262.45 200.49 262.04 200.25Q260.9 199.58 259.37 199.58Q257.95 199.58 256.84 200.17Q256.67 200.26 256.5 200.37Q256.21 200.55 255.95 200.78Q255.12 201.5 254.62 202.59Q253.96 204.03 253.96 205.91L253.96 206.33Q253.96 209.22 255.38 210.94Q255.4 210.97 255.42 211Q255.96 211.63 256.63 212.03Q257.8 212.73 259.38 212.73Q260.18 212.73 260.92 212.51Q261.35 212.39 261.75 212.19Q262.54 211.8 263.11 211.2Q263.34 210.97 263.53 210.7Q263.87 210.21 264.05 209.67Q264.23 209.15 264.25 208.58L262.91 208.58Q262.86 209.28 262.56 209.84Q262.3 210.33 261.83 210.72Q261.6 210.91 261.34 211.06ZM317.07 210.99Q318.38 209.25 318.38 206.28L318.38 206.09Q318.38 203.03 317.09 201.3Q316.53 200.56 315.78 200.13Q314.81 199.58 313.52 199.58Q312.04 199.58 310.96 200.24Q310.14 200.74 309.55 201.61L309.48 199.82L308.18 199.82L308.18 217.37L309.57 217.37L309.57 210.9Q310.05 211.53 310.66 211.94Q311.85 212.73 313.56 212.73Q314.69 212.73 315.58 212.27Q316.43 211.84 317.07 210.99ZM335.65 212.35Q336.61 212.73 337.72 212.73Q339.46 212.73 340.71 211.95Q341.58 211.41 342.21 210.49L341.33 209.82Q340.63 210.73 339.77 211.14Q338.9 211.55 337.78 211.55Q336.87 211.55 336.11 211.21Q335.31 210.85 334.67 210.11Q334.37 209.76 334.14 209.38Q333.43 208.16 333.43 206.52L333.43 206.25L342.48 206.25L342.48 205.46Q342.48 202.74 341.14 201.17L341.13 201.16Q340.65 200.6 340.06 200.25Q338.96 199.58 337.46 199.58Q336.85 199.58 336.27 199.73Q335.46 199.93 334.72 200.42Q334.4 200.63 334.11 200.89Q333.27 201.63 332.75 202.72Q332.04 204.19 332.04 206.02L332.04 206.52Q332.04 208.19 332.69 209.55Q332.72 209.63 332.76 209.71Q333.23 210.63 333.94 211.29Q334.33 211.65 334.8 211.93Q335.21 212.18 335.65 212.35ZM420.11 210.73Q420.17 211.9 420.38 212.5L421.88 212.5L421.88 212.35Q421.49 211.44 421.49 209.6L421.49 203.6Q421.46 202.21 420.8 201.27Q420.56 200.93 420.23 200.64Q420.21 200.63 420.2 200.61Q418.98 199.58 416.88 199.58Q415.23 199.58 414 200.3Q413.7 200.47 413.43 200.69Q412.42 201.48 412.14 202.48Q412.02 202.88 412.02 203.31L413.43 203.32Q413.43 202.99 413.52 202.68Q413.73 202.03 414.39 201.52Q414.48 201.44 414.58 201.38Q415.49 200.77 416.81 200.77Q418.42 200.77 419.26 201.54Q419.46 201.73 419.61 201.95Q420.09 202.65 420.09 203.68L420.09 205.12L417.55 205.12Q414.8 205.12 413.26 206.2Q412.46 206.76 412.07 207.53Q411.72 208.24 411.72 209.13Q411.72 209.97 412.04 210.65Q412.32 211.24 412.85 211.71Q413.03 211.88 413.24 212.02Q414.28 212.73 415.81 212.73Q416.56 212.73 417.27 212.55Q417.76 212.42 418.23 212.21Q418.97 211.87 419.55 211.34Q419.85 211.06 420.11 210.73ZM447.8 210.99Q449.11 209.25 449.11 206.28L449.11 206.09Q449.11 203.03 447.82 201.3Q447.26 200.56 446.51 200.13Q445.54 199.58 444.25 199.58Q442.77 199.58 441.68 200.24Q440.87 200.74 440.28 201.61L440.2 199.82L438.9 199.82L438.9 217.37L440.3 217.37L440.3 210.9Q440.77 211.53 441.39 211.94Q442.57 212.73 444.28 212.73Q445.41 212.73 446.31 212.27Q447.16 211.84 447.8 210.99ZM460.05 210.73Q460.11 211.9 460.32 212.5L461.82 212.5L461.82 212.35Q461.43 211.44 461.43 209.6L461.43 203.6Q461.41 202.21 460.75 201.27Q460.5 200.93 460.17 200.64Q460.16 200.63 460.14 200.61Q458.92 199.58 456.83 199.58Q455.18 199.58 453.94 200.3Q453.65 200.47 453.37 200.69Q452.37 201.48 452.08 202.48Q451.97 202.88 451.97 203.31L453.37 203.32Q453.37 202.99 453.47 202.68Q453.68 202.03 454.33 201.52Q454.42 201.44 454.52 201.38Q455.43 200.77 456.76 200.77Q458.36 200.77 459.2 201.54Q459.4 201.73 459.56 201.95Q460.04 202.65 460.04 203.68L460.04 205.12L457.5 205.12Q454.74 205.12 453.2 206.2Q452.4 206.76 452.02 207.53Q451.66 208.24 451.66 209.13Q451.66 209.97 451.98 210.65Q452.27 211.24 452.79 211.71Q452.98 211.88 453.18 212.02Q454.22 212.73 455.75 212.73Q456.51 212.73 457.22 212.55Q457.71 212.42 458.17 212.21Q458.92 211.87 459.49 211.34Q459.79 211.06 460.05 210.73ZM495.24 212.35Q496.2 212.73 497.31 212.73Q499.05 212.73 500.3 211.95Q501.17 211.41 501.8 210.49L500.92 209.82Q500.22 210.73 499.36 211.14Q498.5 211.55 497.37 211.55Q496.46 211.55 495.7 211.21Q494.9 210.85 494.26 210.11Q493.96 209.76 493.73 209.38Q493.02 208.16 493.02 206.52L493.02 206.25L502.07 206.25L502.07 205.46Q502.07 202.74 500.73 201.17L500.72 201.16Q500.24 200.6 499.65 200.25Q498.55 199.58 497.05 199.58Q496.44 199.58 495.86 199.73Q495.05 199.93 494.31 200.42Q493.99 200.63 493.7 200.89Q492.87 201.63 492.34 202.72Q491.63 204.19 491.63 206.02L491.63 206.52Q491.63 208.19 492.28 209.55Q492.31 209.63 492.35 209.71Q492.82 210.63 493.54 211.29Q493.93 211.65 494.39 211.93Q494.8 212.18 495.24 212.35ZM154.1 212.5L155.51 212.5L155.51 199.82L145.86 199.82L145.86 212.5L147.27 212.5L147.27 201.02L154.1 201.02L154.1 212.5ZM169.09 199.82L167.69 199.82L160.84 210.25L160.84 199.82L159.45 199.82L159.45 212.5L160.84 212.5L167.69 202.08L167.69 212.5L169.09 212.5L169.09 199.82ZM200.45 206.68L202.39 206.68L207.52 212.5L209.37 212.5L203.59 205.97L208.79 199.82L207.02 199.82L202.37 205.44L200.45 205.44L200.45 199.82L199.03 199.82L199.03 212.5L200.45 212.5L200.45 206.68ZM237.6 199.82L233.9 210.48L229.96 199.82L228.43 199.82L233.21 212.39L232.59 214.1Q232.14 215.34 231.51 215.85Q231.49 215.86 231.48 215.88Q230.84 216.36 229.84 216.36L229.11 216.29L229.12 217.45Q229.69 217.62 230.2 217.62Q231.01 217.62 231.67 217.29Q232.77 216.75 233.42 215.31L233.7 214.65L239.12 199.82L237.6 199.82ZM276.89 199.82L275.49 199.82L268.64 210.25L268.64 199.82L267.25 199.82L267.25 212.5L268.64 212.5L275.49 202.08L275.49 212.5L276.89 212.5L276.89 199.82ZM281.07 210.5L280.45 211.31L279.54 211.31L279.52 216.22L280.87 216.22L280.87 212.5L290.4 212.5L290.4 216.22L291.79 216.22L291.79 211.31L290.48 211.31L290.48 199.82L282.99 199.82L282.77 204.64Q282.55 208.5 281.07 210.5ZM304.34 199.82L302.93 199.82L296.09 210.25L296.09 199.82L294.69 199.82L294.69 212.5L296.09 212.5L302.93 202.08L302.93 212.5L304.34 212.5L304.34 199.82ZM329.18 199.82L325.48 210.48L321.54 199.82L320.01 199.82L324.79 212.39L324.17 214.1Q323.72 215.34 323.08 215.85Q323.07 215.86 323.06 215.88Q322.42 216.36 321.41 216.36L320.69 216.29L320.7 217.45Q321.27 217.62 321.78 217.62Q322.59 217.62 323.25 217.29Q324.35 216.75 325 215.31L325.28 214.65L330.7 199.82L329.18 199.82ZM357.37 199.82L352.33 210.6L347.3 199.82L345.46 199.82L345.46 212.5L346.86 212.5L346.86 201.85L351.83 212.5L352.82 212.5L357.7 202.09L357.7 212.5L359.1 212.5L359.1 199.82L357.37 199.82ZM368.16 204.42L364.5 204.42L364.5 199.82L363.1 199.82L363.1 212.5L368.11 212.5Q370.13 212.5 371.37 211.51Q371.44 211.45 371.51 211.39Q371.97 210.98 372.27 210.48Q372.77 209.61 372.77 208.44Q372.77 207.35 372.32 206.5Q372.27 206.42 372.23 206.34Q372.13 206.19 372.02 206.04Q371.5 205.35 370.62 204.93Q369.56 204.42 368.16 204.42ZM375.67 212.5L377.07 212.5L377.07 199.82L375.67 199.82L375.67 212.5ZM388.48 199.82L385.06 204.96L381.64 199.82L379.99 199.82L384.29 206.04L379.81 212.5L381.46 212.5L385.07 207.13L388.68 212.5L390.33 212.5L385.85 206.04L390.15 199.82L388.48 199.82ZM407.12 212.5L408.52 212.5L408.52 199.82L407.12 199.82L407.12 205.5L400.28 205.5L400.28 199.82L398.88 199.82L398.88 212.5L400.28 212.5L400.28 206.68L407.12 206.68L407.12 212.5ZM433.66 212.5L435.07 212.5L435.07 199.82L425.42 199.82L425.42 212.5L426.83 212.5L426.83 201.02L433.66 201.02L433.66 212.5ZM465.42 199.82L465.42 212.5L470.84 212.5Q473.1 212.5 474.34 211.58Q474.83 211.21 475.12 210.73Q475.57 209.99 475.57 208.98Q475.57 208.47 475.41 208.02Q475.22 207.49 474.82 207.05Q474.65 206.86 474.46 206.71Q473.79 206.16 472.82 205.98Q473.92 205.64 474.49 204.9Q474.77 204.54 474.91 204.14Q475.07 203.7 475.07 203.2Q475.07 202.24 474.64 201.54Q474.32 201.04 473.78 200.68Q472.49 199.82 470.08 199.82L465.42 199.82ZM488.54 212.5L488.54 199.82L480.59 199.82L480.34 205.96Q480.17 208.91 479.65 210.06Q479.36 210.68 478.88 210.97Q478.47 211.22 477.91 211.23L477.48 211.25L477.48 212.5L478.02 212.5Q479.2 212.5 479.94 211.93Q479.99 211.88 480.04 211.84Q480.81 211.18 481.19 209.79Q481.58 208.41 481.72 205.77L481.94 201.02L487.13 201.02L487.13 212.5L488.54 212.5ZM513.23 212.5L514.64 212.5L514.64 199.82L513.23 199.82L513.23 205.5L506.4 205.5L506.4 199.82L504.99 199.82L504.99 212.5L506.4 212.5L506.4 206.68L513.23 206.68L513.23 212.5ZM528.23 199.82L526.82 199.82L519.98 210.25L519.98 199.82L518.58 199.82L518.58 212.5L519.98 212.5L526.82 202.08L526.82 212.5L528.23 212.5L528.23 199.82ZM541.82 199.82L540.41 199.82L533.57 210.25L533.57 199.82L532.17 199.82L532.17 212.5L533.57 212.5L540.41 202.08L540.41 212.5L541.82 212.5L541.82 199.82ZM187 209.8Q186.04 208.41 186.04 206.35L186.04 206.1Q186.04 203.79 187.16 202.33Q187.19 202.29 187.22 202.25Q187.83 201.5 188.61 201.13Q189.36 200.78 190.28 200.78Q191.14 200.78 191.86 201.08Q192.2 201.23 192.51 201.44Q192.63 201.52 192.75 201.61Q193.55 202.25 194.02 203.31Q194.56 204.52 194.56 205.97L194.56 206.24Q194.56 208.6 193.41 210.05Q193.4 210.07 193.38 210.09Q192.81 210.79 192.08 211.16Q191.29 211.55 190.31 211.55Q189.3 211.55 188.5 211.14Q187.78 210.78 187.22 210.09Q187.1 209.95 187 209.8ZM336.02 201.06Q336.68 200.78 337.46 200.78Q338.38 200.78 339.09 201.16Q339.62 201.44 340.04 201.93Q340.14 202.04 340.23 202.16Q341.03 203.25 341.08 204.9L341.08 205.05L333.48 205.05Q333.71 203.1 334.8 201.94Q335.35 201.35 336.02 201.06ZM495.61 201.06Q496.27 200.78 497.05 200.78Q497.97 200.78 498.68 201.16Q499.21 201.44 499.63 201.93Q499.73 202.04 499.82 202.16Q500.62 203.25 500.68 204.9L500.68 205.05L493.07 205.05Q493.3 203.1 494.39 201.94Q494.94 201.35 495.61 201.06ZM315.98 202.21Q316.98 203.61 316.98 206.04Q316.98 208.72 315.99 210.13Q315.52 210.8 314.89 211.15Q314.17 211.55 313.23 211.55Q311.98 211.55 311.06 211Q311.04 210.99 311.01 210.97Q310.79 210.83 310.58 210.66Q309.95 210.13 309.57 209.31L309.57 203.23Q310.01 202.16 310.8 201.56Q310.89 201.49 310.99 201.42Q311.08 201.36 311.17 201.31Q312.04 200.8 313.2 200.8Q314.17 200.8 314.9 201.21Q315.52 201.56 315.98 202.21ZM446.71 202.21Q447.7 203.61 447.7 206.04Q447.7 208.72 446.71 210.13Q446.25 210.8 445.61 211.15Q444.89 211.55 443.95 211.55Q442.71 211.55 441.79 211Q441.76 210.99 441.74 210.97Q441.51 210.83 441.31 210.66Q440.68 210.13 440.3 209.31L440.3 203.23Q440.74 202.16 441.53 201.56Q441.62 201.49 441.72 201.42Q441.81 201.36 441.9 201.31Q442.77 200.8 443.93 200.8Q444.89 200.8 445.62 201.21Q446.25 201.56 446.71 202.21ZM470.37 205.49L466.82 205.49L466.82 201.01L470.08 201.01Q471.86 201.01 472.77 201.54Q473.13 201.76 473.35 202.08Q473.67 202.54 473.67 203.24Q473.67 203.91 473.37 204.38Q472.67 205.46 470.37 205.49ZM289.07 211.31L282.07 211.31Q283.97 208.96 284.18 204.42L284.33 201.13L289.07 201.13L289.07 211.31ZM242.1 206.72L242.1 206.43Q242.1 204.75 242.87 203.6Q243.04 203.34 243.25 203.11Q243.66 202.66 244.16 202.37Q245.07 201.84 246.28 201.84Q247.51 201.84 248.43 202.37Q248.93 202.66 249.34 203.1Q249.61 203.4 249.82 203.73Q250.5 204.82 250.5 206.33L250.5 206.64Q250.5 208.66 249.54 209.96Q249.45 210.08 249.35 210.19Q248.89 210.74 248.3 211.07Q247.44 211.55 246.31 211.55Q245.2 211.55 244.34 211.08Q243.74 210.76 243.26 210.2Q243.1 210.02 242.97 209.83Q242.1 208.57 242.1 206.72ZM364.5 211.31L364.5 205.62L368.24 205.62Q369.58 205.64 370.4 206.3Q370.46 206.36 370.53 206.42Q370.82 206.69 371.01 207.01Q371.37 207.63 371.37 208.46Q371.37 209.4 370.94 210.05Q370.76 210.32 370.51 210.55Q370.49 210.57 370.47 210.58Q369.61 211.31 368.13 211.31L364.5 211.31ZM417.94 211.09Q417.04 211.49 415.97 211.49Q414.91 211.49 414.19 211Q414.04 210.9 413.91 210.78Q413.53 210.44 413.33 210.01Q413.12 209.56 413.12 209.02Q413.12 208.46 413.33 208.01Q413.62 207.4 414.31 206.97Q415.49 206.23 417.59 206.2L420.09 206.2L420.09 208.99Q419.91 209.42 419.63 209.78Q419.17 210.38 418.48 210.81Q418.22 210.97 417.94 211.09ZM457.88 211.09Q456.99 211.49 455.91 211.49Q454.86 211.49 454.13 211Q453.99 210.9 453.86 210.78Q453.47 210.44 453.27 210.01Q453.07 209.56 453.07 209.02Q453.07 208.46 453.28 208.01Q453.57 207.4 454.25 206.97Q455.43 206.23 457.53 206.2L460.04 206.2L460.04 208.99Q459.85 209.42 459.58 209.78Q459.12 210.38 458.43 210.81Q458.16 210.97 457.88 211.09ZM466.82 211.32L466.82 206.66L470.89 206.66Q472.47 206.66 473.32 207.28Q473.75 207.59 473.97 208.01Q474.18 208.43 474.18 208.96Q474.18 209.65 473.86 210.15Q473.66 210.47 473.32 210.71Q472.47 211.32 470.89 211.32L466.82 211.32Z" fill="#000000" fill-opacity="1.000000" fill-rule="evenodd"/>
			<rect id="round" rx="194.500000" width="389.000000" height="392.000000" transform="translate(610.000000 -26.000000)" fill="#E1373D" fill-opacity="1.000000"/>
		</g>
	</g>
</svg>
